<svg xmlns="http://www.w3.org/2000/svg" xmlns:xlink="http://www.w3.org/1999/xlink" id="Web-Graphics-01" width="595.234" height="546.48" viewBox="0 0 595.234 546.48"><defs><clipPath id="clip-path"><path id="Path_4404" data-name="Path 4404" d="M1574.593,198.943h112.133a33.85,33.85,0,0,1,33.835,33.835V368.951H1574.6a33.85,33.85,0,0,1-33.835-33.835V232.775A33.85,33.85,0,0,1,1574.6,198.94Z" transform="translate(-1540.76 -198.94)" fill="none"></path></clipPath><clipPath id="clip-path-2"><path id="Path_4447" data-name="Path 4447" d="M2316.75,605.858h129.622a30.044,30.044,0,0,0,30.046-30.046V484.93c0-16.595-13.451-30.046-30.752-44.82h-99.576c-15.888,14.774-29.339,28.225-29.339,44.82V605.856Z" transform="translate(-2316.75 -440.11)" fill="none"></path></clipPath><clipPath id="clip-path-3"><path id="Path_4479" data-name="Path 4479" d="M1742.373,851.03h92.19a24.574,24.574,0,0,1,24.563,24.563V993.327H1742.373a24.574,24.574,0,0,1-24.562-24.563V875.593A24.574,24.574,0,0,1,1742.373,851.03Z" transform="translate(-1717.81 -851.03)" fill="none"></path></clipPath><clipPath id="clip-path-4"><path id="Path_4458" data-name="Path 4458" d="M1796.4,1334.805c-1.029-.516,13.377-30.355,15.436-31.639s15.692-7.716,15.692-7.716a34.819,34.819,0,0,0,28.484,11.064c18.074-1.543,24.726-10.548,24.726-10.548s19.072,3.345,22.416,12.347,11.832,31.726,11.832,31.726l-19.035,3.773-2.834,55.307,18.264,17.492s-37.256,8.743-67.117,6.687-45.547-11.575-45.547-11.575l16.719-16.325.707-52.454-19.744-8.137Z" transform="translate(-1796.351 -1295.45)" fill="none"></path></clipPath><clipPath id="clip-path-9"><path id="Path_4505" data-name="Path 4505" d="M26.965,0H143.3V108.531A26.978,26.978,0,0,1,116.335,135.5H26.965A26.978,26.978,0,0,1,0,108.531V26.965A26.978,26.978,0,0,1,26.965,0Z" transform="translate(143.3 135.496) rotate(180)" fill="none"></path></clipPath></defs><g id="Layer_5" transform="translate(197.167 4.034)"><path id="Path_4362" data-name="Path 4362" d="M2442.825,4.923a33.45,33.45,0,0,0-12.633-15.053h-87.885a33.326,33.326,0,0,0-11.924,13.5c-.249.511-.484,1.028-.712,1.554a33.45,33.45,0,0,0-12.633-15.053H2229.15a33.326,33.326,0,0,0-11.924,13.5c-.249.511-.484,1.028-.712,1.554a33.45,33.45,0,0,0-12.633-15.053H2116a33.323,33.323,0,0,0-11.924,13.5q-.373.767-.709,1.554a33.449,33.449,0,0,0-12.633-15.053h-45.28V37.635c.474-.775.924-1.568,1.336-2.386a32.889,32.889,0,0,0,14.634,14.695q-.734.362-1.445.761a33.073,33.073,0,0,0-13.189,13.934c-.413-.818-.865-1.61-1.336-2.386v96.82c.474-.775.924-1.568,1.336-2.386a32.889,32.889,0,0,0,14.634,14.695q-.734.362-1.445.761a33.072,33.072,0,0,0-13.189,13.934c-.413-.818-.865-1.61-1.336-2.386v96.82c.474-.775.924-1.568,1.336-2.386a32.888,32.888,0,0,0,14.634,14.695q-.734.362-1.445.761a33.073,33.073,0,0,0-13.189,13.934c-.413-.818-.865-1.61-1.336-2.386v96.82c.474-.775.924-1.568,1.336-2.386a32.889,32.889,0,0,0,14.634,14.695q-.734.362-1.445.761a33.073,33.073,0,0,0-13.189,13.934c-.413-.818-.865-1.61-1.336-2.386v96.82c.474-.775.924-1.568,1.336-2.386A32.889,32.889,0,0,0,2061.42,535.7q-.631.311-1.249.653h28.876q-.615-.341-1.249-.653a33.08,33.08,0,0,0,15.563-16.7q.337.788.709,1.551a32.922,32.922,0,0,0,14.851,15.149q-.631.311-1.249.653h28.876q-.615-.341-1.249-.653A32.889,32.889,0,0,0,2159.933,521a32.885,32.885,0,0,0,14.634,14.695q-.631.311-1.249.653h28.876q-.615-.341-1.249-.653a33.078,33.078,0,0,0,15.563-16.7c.225.526.46,1.042.712,1.551a32.922,32.922,0,0,0,14.851,15.149q-.631.311-1.249.653H2259.7q-.615-.341-1.249-.653A32.888,32.888,0,0,0,2273.081,521a32.887,32.887,0,0,0,14.634,14.695q-.631.311-1.249.653h28.876q-.615-.341-1.249-.653a33.081,33.081,0,0,0,15.563-16.7c.225.525.46,1.042.711,1.551a32.922,32.922,0,0,0,14.851,15.149q-.631.311-1.249.653h28.876q-.615-.341-1.249-.653a32.888,32.888,0,0,0,14.634-14.695,32.89,32.89,0,0,0,14.634,14.695q-.631.311-1.249.653h28.876q-.616-.341-1.249-.653a33.081,33.081,0,0,0,15.563-16.7c.225.525.46,1.042.712,1.551V489.122c-.249.508-.484,1.028-.712,1.551a33.338,33.338,0,0,0-13.692-15.706,33.324,33.324,0,0,0,13.692-15.706c.225.525.46,1.042.712,1.551V429.4c-.249.508-.484,1.028-.712,1.551a33.253,33.253,0,0,0-14.118-15.939c-.474-.267-.958-.52-1.445-.761a33.081,33.081,0,0,0,15.563-16.7c.225.525.46,1.042.712,1.551V367.681c-.249.508-.484,1.028-.712,1.551a33.338,33.338,0,0,0-13.692-15.706,33.324,33.324,0,0,0,13.692-15.706c.225.525.46,1.042.712,1.551V307.956c-.249.508-.484,1.028-.712,1.551a33.253,33.253,0,0,0-14.118-15.939c-.474-.267-.958-.52-1.445-.761a33.081,33.081,0,0,0,15.563-16.7c.225.525.46,1.042.712,1.551V246.239c-.249.508-.484,1.028-.712,1.551a33.338,33.338,0,0,0-13.692-15.706,33.324,33.324,0,0,0,13.692-15.706c.225.525.46,1.042.712,1.551V186.514c-.249.511-.484,1.028-.712,1.551a33.254,33.254,0,0,0-14.118-15.939c-.474-.267-.958-.52-1.445-.761a33.081,33.081,0,0,0,15.563-16.7c.225.525.46,1.042.712,1.551V124.8c-.249.508-.484,1.028-.712,1.551a33.338,33.338,0,0,0-13.692-15.706A33.337,33.337,0,0,0,2442.8,94.937c.225.525.46,1.042.712,1.551V65.074c-.249.511-.484,1.028-.712,1.551a33.254,33.254,0,0,0-14.118-15.939c-.474-.267-.958-.52-1.445-.761a33.081,33.081,0,0,0,15.563-16.7c.225.525.46,1.042.712,1.551V3.369c-.228.511-.466,1.028-.691,1.554Zm-56.577,30.318a32.889,32.889,0,0,0,14.634,14.695q-.734.362-1.445.761a33.073,33.073,0,0,0-13.189,13.934A33.07,33.07,0,0,0,2373.059,50.7c-.473-.267-.958-.52-1.445-.761A32.861,32.861,0,0,0,2386.248,35.241Zm-56.577,152.841a33.256,33.256,0,0,0-14.118-15.939c-.474-.267-.958-.52-1.445-.761a33.081,33.081,0,0,0,15.563-16.7c.225.525.46,1.042.712,1.551a32.922,32.922,0,0,0,14.851,15.149q-.734.362-1.445.761a33.1,33.1,0,0,0-13.406,14.388Q2330.01,187.3,2329.671,188.082Zm13.694,44.019a33.182,33.182,0,0,0-12.983,14.155c-.249.511-.484,1.028-.712,1.554a33.338,33.338,0,0,0-13.692-15.706,33.324,33.324,0,0,0,13.692-15.706c.225.525.46,1.042.712,1.554A33.18,33.18,0,0,0,2343.365,232.1Zm-18.441-29.864c0,14.206-10.768,25.766-24,25.766h-24.007V202.238c0-14.206,10.767-25.766,24.007-25.766S2324.924,188.031,2324.924,202.238Zm-24,33.962c13.237,0,24,11.556,24,25.766s-10.768,25.766-24.007,25.766-24-11.556-24-25.766V236.2h24.007Zm0,61.719c13.237,0,24,11.556,24,25.766s-10.768,25.766-24,25.766h-24.007V323.684C2276.913,309.475,2287.683,297.919,2300.92,297.919Zm28.751,39.921c.225.525.46,1.042.712,1.551a33.183,33.183,0,0,0,12.983,14.155,33.182,33.182,0,0,0-12.983,14.155c-.249.511-.484,1.028-.712,1.554a33.338,33.338,0,0,0-13.692-15.706,33.359,33.359,0,0,0,13.692-15.709Zm0-28.313a33.255,33.255,0,0,0-14.118-15.939c-.474-.267-.958-.52-1.445-.761a33.081,33.081,0,0,0,15.563-16.7c.225.525.46,1.042.712,1.551a32.922,32.922,0,0,0,14.851,15.149q-.734.362-1.445.761a33.1,33.1,0,0,0-13.406,14.388Q2330.01,308.74,2329.671,309.526Zm4.747-47.561c0-14.206,10.768-25.766,24-25.766h24.007v25.766c0,14.206-10.768,25.766-24,25.766h0C2345.189,287.731,2334.418,276.172,2334.418,261.966ZM2358.425,228c-13.237,0-24-11.556-24-25.766s10.768-25.766,24.007-25.766,24,11.556,24,25.766V228Zm0-61.719c-13.237,0-24-11.556-24-25.766s10.768-25.763,24-25.766h24.007v25.766c0,14.209-10.77,25.766-24.007,25.766h0Zm0-59.725c-13.237,0-24-11.556-24-25.766s10.768-25.766,24.007-25.766,24,11.556,24,25.766V106.56Zm-15.06,4.1a33.182,33.182,0,0,0-12.983,14.155c-.249.511-.484,1.028-.712,1.554a33.338,33.338,0,0,0-13.692-15.706,33.324,33.324,0,0,0,13.692-15.706c.225.525.46,1.042.712,1.554a33.181,33.181,0,0,0,12.983,14.15Zm-42.446-4.1h-24.007V80.794c0-14.206,10.767-25.766,24.007-25.766s24,11.556,24,25.766S2314.156,106.56,2300.92,106.56Zm0,8.2h0c13.237,0,24,11.559,24,25.766s-10.768,25.766-24.007,25.766-24-11.556-24-25.766V114.756h24.007Zm-13.192,56.624q-.734.362-1.445.761a33.072,33.072,0,0,0-13.189,13.934,33.075,33.075,0,0,0-13.189-13.934c-.473-.267-.958-.52-1.444-.761a32.888,32.888,0,0,0,14.634-14.695A32.886,32.886,0,0,0,2287.728,171.38Zm-55.648,0q-.735.362-1.445.761a33.1,33.1,0,0,0-13.406,14.388c-.249.508-.484,1.028-.712,1.551a33.255,33.255,0,0,0-14.118-15.939c-.474-.267-.958-.52-1.445-.761a33.08,33.08,0,0,0,15.563-16.7c.225.525.46,1.042.712,1.551A32.914,32.914,0,0,0,2232.08,171.38Zm-10.816-30.858c0-14.206,10.768-25.763,24-25.766h24.007v25.766c0,14.206-10.767,25.766-24,25.766h0C2232.032,166.287,2221.264,154.728,2221.264,140.522Zm8.947,91.58a33.181,33.181,0,0,0-12.983,14.155c-.249.511-.484,1.028-.712,1.554a33.339,33.339,0,0,0-13.692-15.706,33.323,33.323,0,0,0,13.692-15.706c.225.525.46,1.042.712,1.554A33.183,33.183,0,0,0,2230.212,232.1Zm-18.442-29.864c0,14.206-10.768,25.766-24.007,25.766h-24.007V202.238c0-14.206,10.768-25.766,24.007-25.766s24.007,11.559,24.007,25.766Zm-24,33.962c13.237,0,24.007,11.556,24.007,25.766s-10.768,25.766-24.007,25.766-24.007-11.556-24.007-25.766V236.2Zm24,87.482c0,14.206-10.768,25.766-24.007,25.766h-24.007V323.682c0-14.206,10.768-25.763,24.007-25.763S2211.77,309.475,2211.77,323.682Zm4.747,14.158c.225.525.46,1.042.712,1.551a33.181,33.181,0,0,0,12.983,14.155,33.18,33.18,0,0,0-12.983,14.155c-.249.511-.484,1.028-.712,1.554a33.339,33.339,0,0,0-13.692-15.706,33.358,33.358,0,0,0,13.692-15.709Zm0-28.313a33.255,33.255,0,0,0-14.118-15.939c-.474-.267-.958-.52-1.445-.761a33.081,33.081,0,0,0,15.563-16.7c.225.525.46,1.042.712,1.551a32.921,32.921,0,0,0,14.851,15.149q-.735.362-1.445.761a33.1,33.1,0,0,0-13.406,14.388Q2216.856,308.74,2216.517,309.526Zm4.747-47.561c0-14.206,10.768-25.766,24-25.766h24.007v25.766c0,14.206-10.767,25.766-24,25.766h0C2232.032,287.731,2221.264,276.172,2221.264,261.966ZM2245.271,228c-13.236,0-24-11.556-24-25.766s10.768-25.766,24.007-25.766,24,11.556,24,25.766V228Zm24-121.444h-24.007c-13.236,0-24-11.556-24-25.766s10.768-25.766,24.007-25.766,24,11.556,24,25.766Zm-39.064,4.1a33.181,33.181,0,0,0-12.983,14.155c-.249.511-.484,1.028-.712,1.554a33.338,33.338,0,0,0-13.692-15.706,33.337,33.337,0,0,0,13.692-15.706c.225.525.46,1.042.712,1.554A33.184,33.184,0,0,0,2230.212,110.658Zm-42.446-4.1h-24.007V80.794c0-14.206,10.768-25.766,24.007-25.766s24.007,11.556,24.007,25.766S2201,106.559,2187.766,106.559Zm0,8.2h0c13.237,0,24.007,11.559,24.007,25.766s-10.768,25.766-24.007,25.766-24.007-11.556-24.007-25.766V114.756h24.007Zm-13.192,56.624q-.734.362-1.445.761a33.07,33.07,0,0,0-13.189,13.934,33.074,33.074,0,0,0-13.189-13.934c-.474-.267-.958-.52-1.445-.761a32.887,32.887,0,0,0,14.634-14.695A32.886,32.886,0,0,0,2174.574,171.38ZM2132.115,228c-13.236,0-24.007-11.556-24.007-25.766s10.768-25.766,24.007-25.766,24.007,11.556,24.007,25.766V228Zm24.007,8.2v25.766c0,14.206-10.767,25.766-24.007,25.766s-24.007-11.556-24.007-25.766,10.768-25.766,24.007-25.766Zm-48.011-95.678c0-14.206,10.768-25.763,24-25.766h24.007v25.766c0,14.206-10.767,25.766-24.007,25.766S2108.111,154.728,2108.111,140.522Zm48.011-33.962h-24.007c-13.236,0-24.007-11.556-24.007-25.766s10.768-25.766,24.007-25.766,24.007,11.556,24.007,25.766Zm-39.064,4.1a33.182,33.182,0,0,0-12.983,14.155q-.373.767-.709,1.554a33.339,33.339,0,0,0-13.692-15.706,33.324,33.324,0,0,0,13.692-15.706q.337.788.709,1.554a33.181,33.181,0,0,0,12.983,14.15Zm-12.983,45.573a32.923,32.923,0,0,0,14.851,15.149q-.734.362-1.445.761a33.094,33.094,0,0,0-13.406,14.388c-.249.508-.485,1.028-.709,1.551a33.253,33.253,0,0,0-14.118-15.939c-.474-.267-.958-.52-1.445-.761a33.081,33.081,0,0,0,15.563-16.7c.222.525.46,1.042.709,1.554Zm0,61.716a33.182,33.182,0,0,0,12.983,14.155,33.182,33.182,0,0,0-12.983,14.155q-.373.767-.709,1.554a33.339,33.339,0,0,0-13.692-15.706,33.324,33.324,0,0,0,13.692-15.706c.222.52.46,1.039.709,1.548Zm0,59.728a32.923,32.923,0,0,0,14.851,15.149q-.734.362-1.445.761a33.094,33.094,0,0,0-13.406,14.388c-.249.508-.485,1.028-.709,1.551a33.254,33.254,0,0,0-14.118-15.939c-.474-.267-.958-.52-1.445-.761a33.081,33.081,0,0,0,15.563-16.7c.222.525.46,1.042.709,1.554Zm0,61.716a33.183,33.183,0,0,0,12.983,14.155,33.182,33.182,0,0,0-12.983,14.155q-.373.767-.709,1.554a33.339,33.339,0,0,0-13.692-15.706,33.324,33.324,0,0,0,13.692-15.706c.222.52.46,1.039.709,1.548Zm0,59.725a32.923,32.923,0,0,0,14.851,15.149q-.734.362-1.445.761a33.094,33.094,0,0,0-13.406,14.388c-.249.508-.485,1.028-.709,1.551a33.254,33.254,0,0,0-14.118-15.939c-.474-.267-.958-.52-1.445-.761a33.081,33.081,0,0,0,15.563-16.7c.222.528.46,1.045.709,1.554Zm4.036-15.706c0-14.206,10.768-25.766,24.007-25.766h24.007v25.766c0,14.206-10.767,25.766-24.007,25.766S2108.111,397.616,2108.111,383.409Zm24-33.962c-13.236,0-24.007-11.556-24.007-25.766h0c0-14.206,10.768-25.763,24.007-25.763s24.007,11.556,24.007,25.763v25.766Zm14.636-55.862c-.474-.267-.958-.52-1.445-.761a32.887,32.887,0,0,0,14.634-14.695,32.886,32.886,0,0,0,14.634,14.695q-.734.362-1.445.761a33.07,33.07,0,0,0-13.189,13.934A33.074,33.074,0,0,0,2146.751,293.585Zm17.008,64.059h24.007c13.237,0,24.007,11.556,24.007,25.766s-10.768,25.766-24.007,25.766-24.007-11.556-24.007-25.766Zm48.011,87.482c0,14.206-10.768,25.766-24.007,25.766h-24.007V445.125c0-14.206,10.768-25.763,24.007-25.763S2211.77,430.919,2211.77,445.125Zm-9.368-30.1c-.474-.267-.958-.52-1.445-.761a33.08,33.08,0,0,0,15.563-16.7c.225.525.46,1.042.712,1.551a32.923,32.923,0,0,0,14.851,15.149q-.734.362-1.445.761a33.1,33.1,0,0,0-13.406,14.388c-.249.508-.484,1.028-.712,1.551a33.313,33.313,0,0,0-14.117-15.936Zm18.862-31.619c0-14.206,10.768-25.766,24-25.766h24.007v25.766c0,14.206-10.767,25.766-24,25.766h0C2232.032,409.175,2221.264,397.616,2221.264,383.409Zm24.007-33.962c-13.236,0-24-11.556-24-25.766h0c0-14.206,10.768-25.763,24.007-25.763s24,11.556,24,25.763v25.766Zm14.634-55.862c-.473-.267-.958-.52-1.444-.761a32.888,32.888,0,0,0,14.634-14.695,32.886,32.886,0,0,0,14.634,14.695q-.734.362-1.445.761a33.071,33.071,0,0,0-13.189,13.934A33.075,33.075,0,0,0,2259.905,293.585Zm17.008,64.059h24.007c13.237,0,24,11.556,24,25.766s-10.767,25.766-24.007,25.766-24-11.556-24-25.766Zm24.007,61.719c13.237,0,24,11.557,24,25.766s-10.767,25.766-24,25.766h-24.007V445.128C2276.913,430.919,2287.683,419.363,2300.919,419.363Zm14.637-4.334c-.474-.267-.958-.52-1.445-.761a33.081,33.081,0,0,0,15.563-16.7c.225.525.46,1.042.712,1.551a32.919,32.919,0,0,0,14.851,15.149q-.735.362-1.445.761a33.093,33.093,0,0,0-13.406,14.388c-.249.508-.485,1.028-.712,1.551a33.316,33.316,0,0,0-14.118-15.936Zm18.863-31.619c0-14.206,10.768-25.766,24-25.766h24.007V383.41c0,14.206-10.768,25.766-24,25.766h0C2345.189,409.175,2334.418,397.616,2334.418,383.41Zm24.007-33.962c-13.237,0-24-11.557-24-25.766h0c0-14.206,10.768-25.763,24.007-25.763s24,11.556,24,25.763v25.766Zm14.634-55.862c-.473-.267-.958-.52-1.445-.761a32.888,32.888,0,0,0,14.634-14.695,32.889,32.889,0,0,0,14.634,14.695q-.734.362-1.445.761a33.073,33.073,0,0,0-13.189,13.934A33.07,33.07,0,0,0,2373.059,293.585Zm0-121.441c-.473-.267-.958-.52-1.445-.761a32.888,32.888,0,0,0,14.634-14.695,32.889,32.889,0,0,0,14.634,14.695q-.734.362-1.445.761a33.073,33.073,0,0,0-13.189,13.934A33.037,33.037,0,0,0,2373.059,172.144ZM2358.425-6.688h24.007V19.078c0,14.206-10.767,25.766-24,25.766h0c-13.237,0-24-11.556-24-25.766S2345.189-6.688,2358.425-6.688Zm-28.042,41.474a32.922,32.922,0,0,0,14.851,15.149q-.734.362-1.445.761a33.1,33.1,0,0,0-13.406,14.388c-.249.508-.484,1.028-.712,1.551A33.256,33.256,0,0,0,2315.553,50.7c-.474-.267-.958-.52-1.445-.761a33.08,33.08,0,0,0,15.563-16.7Q2330.009,34.021,2330.383,34.787Zm-53.47-41.474h24.007c13.237,0,24,11.556,24,25.766s-10.767,25.766-24.007,25.766-24-11.556-24-25.766Zm-3.818,41.929a32.886,32.886,0,0,0,14.634,14.695q-.734.362-1.445.761a33.072,33.072,0,0,0-13.189,13.934A33.075,33.075,0,0,0,2259.905,50.7c-.473-.267-.958-.52-1.444-.761A32.887,32.887,0,0,0,2273.094,35.241ZM2245.271-6.688h24.007V19.078c0,14.206-10.768,25.766-24,25.766h0c-13.237,0-24-11.556-24-25.766S2232.032-6.688,2245.271-6.688Zm-28.042,41.474a32.921,32.921,0,0,0,14.851,15.149q-.735.362-1.445.761a33.094,33.094,0,0,0-13.406,14.388c-.249.508-.485,1.028-.712,1.551A33.254,33.254,0,0,0,2202.4,50.7c-.474-.267-.958-.52-1.445-.761a33.081,33.081,0,0,0,15.563-16.7q.338.788.712,1.554Zm-53.47-41.474h24.007c13.237,0,24.007,11.556,24.007,25.766S2201,44.844,2187.766,44.844s-24.007-11.556-24.007-25.766Zm-3.818,41.929a32.887,32.887,0,0,0,14.634,14.695q-.734.362-1.445.761a33.07,33.07,0,0,0-13.189,13.934A33.073,33.073,0,0,0,2146.751,50.7c-.474-.267-.958-.52-1.445-.761A32.887,32.887,0,0,0,2159.94,35.241ZM2132.115-6.688h24.007V19.078c0,14.206-10.767,25.766-24.007,25.766s-24.007-11.556-24.007-25.766S2118.878-6.688,2132.115-6.688Zm-28.039,41.474a32.92,32.92,0,0,0,14.85,15.149q-.734.362-1.445.761a33.094,33.094,0,0,0-13.406,14.388c-.249.508-.485,1.028-.709,1.551A33.255,33.255,0,0,0,2089.248,50.7c-.474-.267-.958-.52-1.445-.761a33.082,33.082,0,0,0,15.563-16.7C2103.588,33.759,2103.826,34.275,2104.075,34.787ZM2050.6,19.078V-6.688h24.007c13.236,0,24.007,11.556,24.007,25.766s-10.768,25.766-24.007,25.766S2050.6,33.284,2050.6,19.078Zm0,61.719c0-14.206,10.768-25.766,24.007-25.766s24.007,11.556,24.007,25.766-10.768,25.766-24.007,25.766H2050.6Zm0,59.725V114.756h24.007c13.236,0,24,11.559,24,25.766s-10.768,25.766-24.007,25.766-24-11.559-24-25.766Zm0,61.716c0-14.206,10.768-25.766,24.007-25.766s24.007,11.556,24.007,25.766S2087.851,228,2074.612,228H2050.6Zm0,59.728V236.2h24.007c13.236,0,24.007,11.556,24.007,25.766s-10.768,25.766-24.007,25.766-24.007-11.559-24.007-25.766Zm0,61.716c0-14.206,10.768-25.763,24.007-25.763s24.007,11.556,24.007,25.766-10.768,25.766-24.007,25.766H2050.6Zm0,59.728V357.644h24.007c13.236,0,24.007,11.556,24.007,25.766s-10.768,25.766-24.007,25.766S2050.6,397.616,2050.6,383.409Zm0,61.716c0-14.206,10.768-25.763,24.007-25.763s24.007,11.557,24.007,25.766-10.768,25.766-24.007,25.766H2050.6Zm24.007,85.491c-13.237,0-24.007-11.556-24.007-25.766V479.085h24.007c13.236,0,24.007,11.557,24.007,25.766S2087.848,530.616,2074.612,530.616Zm28.751-39.921a33.336,33.336,0,0,0-13.691-15.706,33.322,33.322,0,0,0,13.691-15.706q.338.788.709,1.551a33.177,33.177,0,0,0,12.983,14.155,33.178,33.178,0,0,0-12.983,14.155c-.246.508-.484,1.025-.709,1.551Zm52.759,14.158c0,14.206-10.767,25.766-24.007,25.766s-24.007-11.556-24.007-25.766,10.768-25.766,24.007-25.766h24.007Zm0-33.962h-24.007c-13.236,0-24.007-11.556-24.007-25.766h0c0-14.206,10.768-25.763,24.007-25.763s24.007,11.557,24.007,25.763Zm-9.37-55.862c-.474-.267-.958-.52-1.445-.761a32.886,32.886,0,0,0,14.634-14.695,32.887,32.887,0,0,0,14.634,14.695q-.734.362-1.445.761a33.07,33.07,0,0,0-13.189,13.934A33.073,33.073,0,0,0,2146.751,415.029Zm41.014,115.588c-13.237,0-24.007-11.556-24.007-25.766V479.085h24.007c13.237,0,24.007,11.557,24.007,25.766S2201,530.616,2187.766,530.616Zm28.751-39.921a33.339,33.339,0,0,0-13.692-15.706,33.323,33.323,0,0,0,13.692-15.706c.225.525.46,1.042.712,1.551a33.18,33.18,0,0,0,12.983,14.155,33.181,33.181,0,0,0-12.983,14.155q-.373.763-.712,1.551Zm52.758,14.158c0,14.206-10.767,25.766-24,25.766h0c-13.236,0-24-11.556-24-25.766s10.768-25.766,24-25.766h24.007v25.766Zm0-33.962h-24.007c-13.236,0-24-11.556-24-25.766h0c0-14.206,10.768-25.763,24.007-25.763s24,11.557,24,25.763Zm-9.37-55.862c-.473-.267-.958-.52-1.444-.761a32.887,32.887,0,0,0,14.634-14.695,32.886,32.886,0,0,0,14.634,14.695q-.734.362-1.444.761a33.071,33.071,0,0,0-13.189,13.934A33.071,33.071,0,0,0,2259.905,415.029Zm41.015,115.588c-13.237,0-24-11.556-24-25.766V479.085h24.007c13.236,0,24,11.557,24,25.766S2314.156,530.616,2300.92,530.616Zm28.751-39.921a33.338,33.338,0,0,0-13.692-15.706,33.323,33.323,0,0,0,13.692-15.706c.225.525.46,1.042.712,1.551a33.182,33.182,0,0,0,12.983,14.155,33.182,33.182,0,0,0-12.983,14.155q-.373.763-.712,1.551Zm52.759,14.158c0,14.206-10.768,25.766-24,25.766h0c-13.236,0-24-11.556-24-25.766s10.768-25.766,24-25.766h24.007v25.766Zm0-33.962h-24.007c-13.237,0-24-11.556-24-25.766h0c0-14.206,10.768-25.763,24.007-25.763s24,11.557,24,25.763Zm-9.371-55.862c-.473-.267-.958-.52-1.445-.761a32.886,32.886,0,0,0,14.634-14.695,32.886,32.886,0,0,0,14.634,14.695q-.735.362-1.445.761a33.074,33.074,0,0,0-13.189,13.934A33.07,33.07,0,0,0,2373.059,415.029Zm65.021,89.825c0,14.206-10.768,25.766-24.007,25.766s-24-11.556-24-25.766V479.088h24.006C2427.31,479.088,2438.08,490.644,2438.08,504.853Zm0-59.728c0,14.206-10.768,25.766-24,25.766H2390.07V445.125c0-14.206,10.767-25.763,24.006-25.763S2438.08,430.919,2438.08,445.125Zm0-61.716c0,14.206-10.768,25.766-24.007,25.766s-24-11.556-24-25.766V357.644h24.006C2427.31,357.644,2438.08,369.2,2438.08,383.409Zm0-59.728c0,14.206-10.768,25.766-24,25.766H2390.07V323.682c0-14.206,10.767-25.763,24.006-25.763S2438.08,309.475,2438.08,323.682Zm0-61.716c0,14.206-10.768,25.766-24.007,25.766s-24-11.556-24-25.766V236.2h24.006C2427.31,236.2,2438.08,247.759,2438.08,261.966Zm0-59.728c0,14.206-10.768,25.766-24,25.766H2390.07V202.238c0-14.206,10.767-25.766,24.006-25.766S2438.08,188.031,2438.08,202.238Zm0-61.716c0,14.206-10.768,25.766-24.007,25.766s-24-11.556-24-25.766V114.756h24.006c13.234,0,24,11.559,24,25.766Zm0-59.725c0,14.206-10.768,25.766-24,25.766H2390.07V80.8c0-14.206,10.767-25.766,24.006-25.766S2438.08,66.588,2438.08,80.8Zm-24.007-35.953c-13.237,0-24-11.556-24-25.766V-6.688h24.006c13.237,0,24,11.556,24,25.766s-10.77,25.766-24.007,25.766Z" transform="translate(-2045.45 6.096)" fill="#ff8c21" opacity="0.05"></path></g><path id="Path_4363" data-name="Path 4363" d="M1616.016,968.29H1708.8a24.278,24.278,0,0,1,24.266,24.266v87H1616.016a24.278,24.278,0,0,1-24.266-24.266V992.556A24.278,24.278,0,0,1,1616.016,968.29Z" transform="translate(-1514.644 -681.554)" fill="#fdb94e"></path><path id="Path_4364" data-name="Path 4364" d="M24.266,0H141.315V87a24.278,24.278,0,0,1-24.266,24.266H24.266A24.278,24.278,0,0,1,0,87V24.266A24.278,24.278,0,0,1,24.266,0Z" transform="translate(451.441 468.012) rotate(180)" fill="#8f001c"></path><g id="Group_4116" data-name="Group 4116" transform="translate(64.569 131.459)" opacity="0.1"><path id="Path_4365" data-name="Path 4365" d="M1578.819,381.51h219.756a34.465,34.465,0,0,1,34.449,34.449v94.294a34.465,34.465,0,0,1-34.449,34.449h-254.2V415.959A34.465,34.465,0,0,1,1578.819,381.51Z" transform="translate(-1544.37 -381.51)" fill="#f36e07"></path></g><g id="Group_4117" data-name="Group 4117" transform="translate(102.646 218.947)" opacity="0.1"><path id="Path_4366" data-name="Path 4366" d="M0,0H317.982a38.288,38.288,0,0,1,38.27,38.27v86.652a38.288,38.288,0,0,1-38.27,38.27H38.27A38.288,38.288,0,0,1,0,124.922V0H0Z" transform="translate(356.252 163.192) rotate(180)" fill="#f36e07"></path></g><g id="Group_4118" data-name="Group 4118" transform="translate(0 260.773)" opacity="0.1"><path id="Path_4367" data-name="Path 4367" d="M1335.226,870.18h225.816a34.872,34.872,0,0,1,34.856,34.857v93.479a34.872,34.872,0,0,1-34.856,34.856H1300.37V905.036A34.872,34.872,0,0,1,1335.226,870.18Z" transform="translate(-1300.37 -870.18)" fill="#f36e07"></path></g><g id="Group_4119" data-name="Group 4119" transform="translate(147.764 114.909)" opacity="0.1"><path id="Path_4368" data-name="Path 4368" d="M0,0H260.672a34.872,34.872,0,0,1,34.857,34.856v93.479a34.872,34.872,0,0,1-34.857,34.856H34.856A34.872,34.872,0,0,1,0,128.335V0H0Z" transform="translate(295.529 163.192) rotate(180)" fill="#f36e07"></path></g><rect id="Rectangle_2501" data-name="Rectangle 2501" width="92.622" height="52.584" transform="translate(422.136 301.306)" fill="#0a468e"></rect><rect id="Rectangle_2502" data-name="Rectangle 2502" width="92.622" height="52.584" transform="translate(419.019 298.779)" fill="#3c9eef"></rect><rect id="Rectangle_2503" data-name="Rectangle 2503" width="0.193" height="51.028" transform="translate(432.438 299.557)" fill="#0a468e"></rect><rect id="Rectangle_2504" data-name="Rectangle 2504" width="0.193" height="51.028" transform="translate(448.57 299.557)" fill="#0a468e"></rect><rect id="Rectangle_2505" data-name="Rectangle 2505" width="0.193" height="51.028" transform="translate(464.704 299.557)" fill="#0a468e"></rect><rect id="Rectangle_2506" data-name="Rectangle 2506" width="0.193" height="51.028" transform="translate(480.838 299.557)" fill="#0a468e"></rect><rect id="Rectangle_2507" data-name="Rectangle 2507" width="0.193" height="51.028" transform="translate(496.97 299.557)" fill="#0a468e"></rect><path id="Path_4369" data-name="Path 4369" d="M2883.009,1095.512l-.519-.267,13.771-26.706,16.253,13.292,16.116-9.455,16.026,10.535,17.034-29.81H2975.8v.582h-13.774l-17.174,30.056-16.243-10.678-16.15,9.479-.159-.13-15.854-12.964Z" transform="translate(-2463.821 -743.921)" fill="#0a468e"></path><path id="Path_4370" data-name="Path 4370" d="M24.266,0H141.315V87a24.278,24.278,0,0,1-24.266,24.266H24.266A24.278,24.278,0,0,1,0,87V24.266A24.278,24.278,0,0,1,24.266,0Z" transform="translate(455.762 312.714) rotate(180)" fill="#f36e07"></path><g id="Group_4120" data-name="Group 4120" transform="translate(31.832 342.371)" opacity="0.1"><path id="Path_4371" data-name="Path 4371" d="M0,0H429.548A34.872,34.872,0,0,1,464.4,34.856V81.595a34.872,34.872,0,0,1-34.857,34.856H34.856A34.872,34.872,0,0,1,0,81.595V0H0Z" transform="translate(464.405 116.451) rotate(180)" fill="#f36e07"></path></g><path id="Path_4372" data-name="Path 4372" d="M1615.376,409.56h92.783a24.278,24.278,0,0,1,24.266,24.266v87H1615.376a24.278,24.278,0,0,1-24.266-24.266V433.826A24.278,24.278,0,0,1,1615.376,409.56Z" transform="translate(-1514.173 -270.679)" fill="#0057d5"></path><path id="Path_4373" data-name="Path 4373" d="M1742.076,420.93h92.783a24.278,24.278,0,0,1,24.266,24.266v87H1742.076a24.278,24.278,0,0,1-24.266-24.266V445.2A24.278,24.278,0,0,1,1742.076,420.93Z" transform="translate(-1607.344 -279.04)" fill="#accdfc"></path><g id="Group_4121" data-name="Group 4121" transform="translate(63.613 83.146)" clip-path="url(#clip-path)"><path id="Path_4374" data-name="Path 4374" d="M2144.118,1092.729s11.768.487,18.4-8.989c0,0-5.1,82.839-29.739,85.681S2144.118,1092.729,2144.118,1092.729Z" transform="translate(-1969.775 -849.599)" fill="#03277f"></path><path id="Path_4375" data-name="Path 4375" d="M1926.176,614.9s6.634,34.118,0,40.752,34.118,13.268,30.326-3.792-2.842-33.168-1.895-36.96-25.589-4.739-28.434,0Z" transform="translate(-1823.647 -502.468)" fill="#fdb94e"></path><path id="Path_4376" data-name="Path 4376" d="M1956.551,617.82a60.071,60.071,0,0,0-.834,12.133c-6.02,4-18.055,7.338-24.856,9a192.781,192.781,0,0,0-2.742-21.133,2.521,2.521,0,0,1,.254-.344c7.079-.5,19.516-1.172,26.044-1.508,1.482.495,2.318,1.119,2.135,1.852Z" transform="translate(-1825.615 -505.613)" fill="#f36e07"></path><path id="Path_4377" data-name="Path 4377" d="M1751.121,766.593s-49.583,15.166-53.375,20.85,2.924,137.7,9.556,140.545,105.842,3.588,111.529,1.694,23.451-132.159,21.556-139.741-40.932-23.351-40.932-23.351l-28.434,1.895-19.9-1.895Z" transform="translate(-1655.395 -616.375)" fill="#03277f"></path><path id="Path_4378" data-name="Path 4378" d="M1885.078,732.1l19.1,11.157-12.358,14.5-17.968-16.732Z" transform="translate(-1785.706 -591.012)" fill="#03277f"></path><path id="Path_4379" data-name="Path 4379" d="M2003.958,731.44l-19.1,11.159,12.358,14.5,17.974-16.732Z" transform="translate(-1867.34 -590.527)" fill="#03277f"></path><path id="Path_4380" data-name="Path 4380" d="M2491.29,1087.179l16.192-63.079h28.712l-18.169,65.291-26.735-2.212" transform="translate(-2239.756 -805.742)" fill="#3f3f3f"></path><path id="Path_4381" data-name="Path 4381" d="M1998.776,788.462,1987.05,773.73l.743-.59,11.085,13.93,13.406-12.48.646.691Z" transform="translate(-1868.951 -621.192)" fill="#68b6ff"></path><path id="Path_4382" data-name="Path 4382" d="M1904.681,793.1l-16.121-13.17.6-.73,15.293,12.49,5.16-8.2.8.5Z" transform="translate(-1796.523 -625.648)" fill="#68b6ff"></path><rect id="Rectangle_2508" data-name="Rectangle 2508" width="8.354" height="0.95" transform="matrix(0.783, -0.622, 0.622, 0.783, 90.802, 147.305)" fill="#68b6ff"></rect><rect id="Rectangle_2509" data-name="Rectangle 2509" width="58.186" height="0.95" transform="translate(162.968 299.739) rotate(-77.32)" fill="#68b6ff"></rect><path id="Path_4383" data-name="Path 4383" d="M1985.373,855.8a4.313,4.313,0,1,1,4.313-4.313A4.321,4.321,0,0,1,1985.373,855.8Zm0-7.849a3.538,3.538,0,1,0,3.538,3.538A3.538,3.538,0,0,0,1985.373,847.948Z" transform="translate(-1864.545 -675.632)" fill="#68b6ff"></path><path id="Path_4384" data-name="Path 4384" d="M1985.373,941.647a4.313,4.313,0,1,1,4.313-4.313A4.321,4.321,0,0,1,1985.373,941.647Zm0-7.846a3.535,3.535,0,1,0,3.538,3.538A3.538,3.538,0,0,0,1985.373,933.8Z" transform="translate(-1864.545 -738.764)" fill="#68b6ff"></path><path id="Path_4385" data-name="Path 4385" d="M1985.373,1027.517a4.313,4.313,0,1,1,4.313-4.313A4.321,4.321,0,0,1,1985.373,1027.517Zm0-7.846a3.535,3.535,0,1,0,3.538,3.533A3.537,3.537,0,0,0,1985.373,1019.671Z" transform="translate(-1864.545 -801.91)" fill="#68b6ff"></path><path id="Path_4386" data-name="Path 4386" d="M1985.373,1199.237a4.313,4.313,0,1,1,4.313-4.313A4.321,4.321,0,0,1,1985.373,1199.237Zm0-7.846a3.535,3.535,0,1,0,3.538,3.538A3.538,3.538,0,0,0,1985.373,1191.391Z" transform="translate(-1864.545 -928.189)" fill="#68b6ff"></path><path id="Path_4387" data-name="Path 4387" d="M1985.373,1285.1a4.313,4.313,0,1,1,4.313-4.313A4.321,4.321,0,0,1,1985.373,1285.1Zm0-7.849a3.535,3.535,0,1,0,3.538,3.538A3.538,3.538,0,0,0,1985.373,1277.248Z" transform="translate(-1864.545 -991.328)" fill="#68b6ff"></path><path id="Path_4388" data-name="Path 4388" d="M1657.872,845.39s-26.433,62.528-12.967,143.11c6.02,36.021,37.892-14.679,40.752-49.284l7.582-38.858S1661.664,847.285,1657.872,845.39Z" transform="translate(-1614.534 -674.323)" fill="#03277f"></path><path id="Path_4389" data-name="Path 4389" d="M1766.461,1069.369c-15.912,25.992-104.035,102.437-116.573,75.826-5.287-11.217-3.308-25.081,6.594-33,24.75-19.8,101.441-66.511,101.441-66.511l8.537,23.689Z" transform="translate(-1618.911 -821.611)" fill="#03277f"></path><path id="Path_4390" data-name="Path 4390" d="M1938.829,402.537s2.842,17.058,1.895,30.326-2.144,27.484-23.692,27.484c-19.476,0-24.642-10.426-24.642-41.7C1892.4,377.9,1936.937,388.322,1938.829,402.537Z" transform="translate(-1799.34 -339.384)" fill="#fdb94e"></path><path id="Path_4391" data-name="Path 4391" d="M1930.306,529.61c3.792.95,5.684,2.842,5.684,3.792s-2.842,1.895-6.634.95c-4.951-1.236-4.74-2.842-4.74-3.792S1926.514,528.662,1930.306,529.61Z" transform="translate(-1823.037 -441.818)" fill="#f8ebda"></path><path id="Path_4392" data-name="Path 4392" d="M2020.784,532.807a13.085,13.085,0,0,1-1.424.267c-3.062.437-5.21-.389-5.21-1.212,0-.95,1.895-2.842,5.684-3.792,2.813-.7,4.578-.36,5.308.246a.907.907,0,0,1,.375.7c.006.945.212,2.546-4.736,3.787Z" transform="translate(-1888.879 -440.686)" fill="#f8ebda"></path><path id="Path_4393" data-name="Path 4393" d="M1929.607,500.646c-.14.982-5.565.2-7.8-.627s-6.224-.887-7.468-.339,2.3-4.477,6.333-3.872,9.122,3.567,8.939,4.837Z" transform="translate(-1815.291 -417.212)" fill="#3f3f3f"></path><path id="Path_4394" data-name="Path 4394" d="M2006.307,498.936c.14.982,5.565.2,7.8-.627s6.224-.887,7.468-.339-2.3-4.477-6.333-3.871S2006.124,497.666,2006.307,498.936Z" transform="translate(-1883.108 -415.955)" fill="#3f3f3f"></path><path id="Path_4395" data-name="Path 4395" d="M1841.7,338.546s-14.081-23.041-7.447-35.359,14.081-10.476,14.081-10.476,16.111-1.553,18.008-10.082,10.426,2.842,10.426,5.684,2.842-10.426,5.684-8.532,2.842,6.634,3.792,5.684,2.842-8.532,3.792-8.532,2.842,6.634,3.792,5.684,0-12.318,2.842-10.426,4.74,10.426,5.684,10.426,0-7.582,1.895-5.684,3.792,23.692-4.74,32.223-33.168,13.268-43.594,5.684c-1.895,10.426-4.74,21.8-4.74,23.692s-7.579.958-9.471.008Z" transform="translate(-1755.28 -252.651)" fill="#3f3f3f"></path><path id="Path_4396" data-name="Path 4396" d="M2057.14,383.961s.95,23.692,3.792,25.589,7.582,4.739,8.532-.95,2.842-30.326-1.895-33.168-10.429,8.526-10.429,8.526Z" transform="translate(-1920.493 -328.393)" fill="#3f3f3f"></path><path id="Path_4397" data-name="Path 4397" d="M1997.019,551.714c-1.384,0-3.633-1.5-4.379-2.03l.545-.775c1.72,1.212,3.581,2.072,3.983,1.839.026-.013.058-.114.037-.312-.3-3-2.342-10.908-2.363-10.987l.918-.238c.085.326,2.088,8.061,2.39,11.133a1.156,1.156,0,0,1-.5,1.228A1.241,1.241,0,0,1,1997.019,551.714Z" transform="translate(-1873.061 -449.166)" fill="#f36e07"></path><path id="Path_4398" data-name="Path 4398" d="M1978.508,591.8l-.159-.934a43.181,43.181,0,0,1-5.7.733,23.1,23.1,0,0,1-7.312-1.339,23.559,23.559,0,0,1-2.527-1.114l-.45.834c.228.119,4.914,2.6,9.421,2.6.254,0,.511-.011.765-.029a37.685,37.685,0,0,0,5.959-.754Z" transform="translate(-1850.794 -485.89)" fill="#f36e07"></path><path id="Path_4399" data-name="Path 4399" d="M2065.374,500.906c.966-3.58,7.277-11.741,12.361-2.842a10.532,10.532,0,0,1-4.779,15.166C2066.075,515.953,2061.426,515.577,2065.374,500.906Z" transform="translate(-1925.482 -415.956)" fill="#fdb94e"></path><path id="Path_4400" data-name="Path 4400" d="M1866.522,499.776c-.966-3.58-7.277-11.741-12.361-2.842a10.532,10.532,0,0,0,4.779,15.166C1865.824,514.828,1870.476,514.447,1866.522,499.776Z" transform="translate(-1770.09 -415.125)" fill="#fdb94e"></path><path id="Path_4401" data-name="Path 4401" d="M1865.578,522.995c-.767-1.27-.916-2.329-.445-3.144.619-1.072,2.136-1.342,2.94-1.411a3.906,3.906,0,0,0-1.466-1.948,2.012,2.012,0,0,0-2.882.347l-.725-.611a2.928,2.928,0,0,1,4.2-.474c2.067,1.672,1.876,3.067,1.847,3.223l-.071.394-.4-.008c-.577-.016-2.157.143-2.625.958-.283.495-.14,1.228.437,2.18l-.81.492Z" transform="translate(-1777.727 -431.402)" fill="#f36e07"></path><path id="Path_4402" data-name="Path 4402" d="M2090.931,524.4l-.156-.937c.535-.093,2.017-.508,2.445-1.331a1.293,1.293,0,0,0-.069-1.2c-.346-.728-.746-1.156-1.156-1.241a1.066,1.066,0,0,0-.823.246l-1.072.953.291-1.4c.027-.114.593-2.765,1.778-3.858a1.381,1.381,0,0,1,1.093-.368c1.165.114,2.271,1.588,2.392,1.757l-.767.558c-.368-.5-1.162-1.318-1.725-1.373a.433.433,0,0,0-.355.122,6.1,6.1,0,0,0-1.246,2.424,1.7,1.7,0,0,1,.6.008,2.806,2.806,0,0,1,1.839,1.768,2.2,2.2,0,0,1,.05,2.051c-.733,1.405-3.03,1.81-3.125,1.826Z" transform="translate(-1944.731 -431.549)" fill="#f36e07"></path><path id="Path_4403" data-name="Path 4403" d="M1872.227,501.292a77.558,77.558,0,0,0-6.626-6.2c-1.884-1.532-4.027-.408-5.761,1.225,5.025-7.9,11.051-.037,12,3.461.143.516.267,1.029.389,1.511Z" transform="translate(-1775.403 -415.124)" fill="#f36e07"></path><circle id="Ellipse_27" data-name="Ellipse 27" cx="2.969" cy="2.969" r="2.969" transform="translate(103.884 92.63) rotate(-80.78)" fill="#3f3f3f"></circle><circle id="Ellipse_28" data-name="Ellipse 28" cx="2.969" cy="2.969" r="2.969" transform="translate(128.51 86.784)" fill="#3f3f3f"></circle></g><path id="Path_4405" data-name="Path 4405" d="M24.266,0H141.315V87a24.278,24.278,0,0,1-24.266,24.266H24.266A24.278,24.278,0,0,1,0,87V24.266A24.278,24.278,0,0,1,24.266,0Z" transform="translate(424.481 312.714) rotate(180)" fill="#fdb94e"></path><g id="Group_4122" data-name="Group 4122" transform="translate(268.96 146.966)" clip-path="url(#clip-path-2)"><path id="Path_4406" data-name="Path 4406" d="M2103.52,1308.256c.172-13.21,69.1-4.7,69.1-4.7s1.569,6.563,1.789,31.355c.9,101.844-122.652,80.375-171.086,76.27-38.141-3.437-60.345-49.789-22.006-56.2C2022.6,1346.928,2102.906,1355.709,2103.52,1308.256Z" transform="translate(-2055.406 -1073.083)" fill="#3f3f3f"></path><path id="Path_4407" data-name="Path 4407" d="M2100.568,1326.966c2.435-12.022,59.067-2.842,59.067-2.842s.394,6.057-3.655,28.649c-16.65,92.817-99.423,72.817-145.833,66.8-36.513-4.927-50.136-48.2-11.734-52.232C2039.958,1361.945,2091.8,1370.169,2100.568,1326.966Z" transform="translate(-2065.73 -1087.726)" fill="#3f3f3f"></path><path id="Path_4408" data-name="Path 4408" d="M1952.225,1278.6s-20.458,4.927-23.61,3.16-19.257,1.826-21.453,5.065-17.108-2.329-17.052-6.377,12.347-20.085,17.844-20.424S1941,1264.4,1941,1264.4c11.779,8.315,11.228,14.2,11.228,14.2Z" transform="translate(-2003.009 -1043.039)" fill="#f9c785"></path><path id="Path_4409" data-name="Path 4409" d="M2173.156,916.33c-6.822,1.2-13.76,29.291-14.247,36.719-1.056,16.184.1,59.252.1,59.252-6.486-4.718-27.415-1.94-55.55-1.94-20.8,0-20.5,1.2-20.5,1.2s-3.009,20.482-.944,20.318,10.275,6.078,34.734,10.791,75.559,6.761,77.914-17.992-18.857-104.914-21.511-108.351" transform="translate(-2143.603 -790.31)" fill="#0057d5"></path><path id="Path_4410" data-name="Path 4410" d="M2248.188,1123.3c-4.305-3.6-25.156-2.739-37.614-2.226-3.057.127-5.7.236-7.65.267l-.013-.77c1.945-.032,4.581-.14,7.635-.267,12.832-.535,31.954-1.326,37.5,1.958-.042-5.549-.267-40.58.273-55.391l.77.029c-.582,16.012-.267,55.7-.264,56.1l.008.834-.646-.532Z" transform="translate(-2233.035 -901.013)" fill="#68b6ff"></path><path id="Path_4411" data-name="Path 4411" d="M2116.712,1277.035c-.105-1.474-2.413-1.485-2.31-.005a43.061,43.061,0,0,1-3.832,21.257c-.622,1.339,1.368,2.514,2,1.167a45.418,45.418,0,0,0,4.149-22.419h0Z" transform="translate(-2165.043 -1054.747)" fill="#68b6ff"></path><path id="Path_4412" data-name="Path 4412" d="M2496.531,541.979c-7.958-3.535-13.258-17.828-7.809-43.478s29.321-32.11,51.719-23.123,12.818,47.445,12.818,47.445c-1.768,22.1-23.647,19.008-23.647,19.008s-25.126,3.683-33.081.148Z" transform="translate(-2441.577 -463.226)" fill="#3f3f3f"></path><path id="Path_4413" data-name="Path 4413" d="M2558.38,733.8v21.366l19.6-.736L2579.3,736.3Z" transform="translate(-2494.438 -656.082)" fill="#f9c785"></path><path id="Path_4414" data-name="Path 4414" d="M2579.058,755.78l-.683,8.989c-2.358.294-7.862.341-11.667.3-4.882-.053-6.242-.945-8.328-4.189V756.32l20.681-.54Z" transform="translate(-2494.438 -672.246)" fill="#f36e07"></path><path id="Path_4415" data-name="Path 4415" d="M2556.105,604.648c-.148,12.821-10.016,23.131-21.22,23.136-13.706.005-21.511-23.724-19.3-37.871s24.01-19.686,31.972-14.734c10.905,6.777,8.693,16.65,8.55,29.469Z" transform="translate(-2462.692 -538.129)" fill="#f9c785"></path><path id="Path_4416" data-name="Path 4416" d="M2609.327,678.568s.016-.021.024-.029a5.7,5.7,0,0,1,1.463-1.154,8.231,8.231,0,0,1,2.414-.852c5.305-1.035,5.678,1.252,5.678,1.252a7.145,7.145,0,0,1-3.175,3.025,7.34,7.34,0,0,1-.694.318,8.926,8.926,0,0,1-1.293.415,17.612,17.612,0,0,1-3.985.548c-.161,0-.312,0-.452-.008a5.872,5.872,0,0,1-1.376-.169A5.484,5.484,0,0,1,2609.327,678.568Z" transform="translate(-2530.877 -613.772)" fill="#fff"></path><path id="Path_4417" data-name="Path 4417" d="M2534.491,674.407c5.261,1.021,5.261,5.34,5.261,5.34a9.118,9.118,0,0,1-3.514.061c-.569-.079-1.214-.185-1.931-.355-.106-.024-.214-.05-.331-.079a8.255,8.255,0,0,1-3.911-2.122,6.494,6.494,0,0,1-.842-1,3.923,3.923,0,0,1-.363-.6s.37-2.263,5.628-1.244Z" transform="translate(-2472.73 -612.212)" fill="#fff"></path><path id="Path_4418" data-name="Path 4418" d="M2494.335,557.507c-2.945,12.377,5.8,16.126,5.8,16.126s-4.962-5.311,15.274-14.544,22.347-25.55,22.347-25.55c-4.52,9.823-40.474,11.591-43.42,23.967Z" transform="translate(-2446.896 -508.816)" fill="#3f3f3f"></path><path id="Path_4419" data-name="Path 4419" d="M2466.983,555.7c-3.316,13.938,6.526,18.159,6.526,18.159s-5.586-5.978,17.193-16.375,26.881-23.946,26.881-23.946c-5.089,11.059-47.283,8.225-50.6,22.162Z" transform="translate(-2426.726 -508.816)" fill="#68b6ff"></path><path id="Path_4420" data-name="Path 4420" d="M2642.561,584.544c3.93.786,14.343-3.12,16.06-15.838,2.448-18.13-16.848-35.166-16.848-35.166l-6.592,13.165c11.479,5.893,8.937,31.578,8.937,31.578a25.359,25.359,0,0,1-1.559,6.264Z" transform="translate(-2550.915 -508.816)" fill="#3f3f3f"></path><path id="Path_4421" data-name="Path 4421" d="M2648.523,578.04c3.927.786,14.536-6.56,16.253-19.278,2.448-18.129-16.939-34.182-16.939-34.182l-6.377,10.487c11.482,5.893,15.689,20.81,14.854,28.892-1.2,11.548-7.8,14.086-7.791,14.083Z" transform="translate(-2555.533 -502.227)" fill="#68b6ff"></path><path id="Path_4422" data-name="Path 4422" d="M2459.238,825.924c-4.367,2.361-31,8.431-33.464,13.853s9.5,16.013,3.6,28.191-3.144,20.432,3.144,35.018-7.856,52.211-3.144,53.783,83.3,3.93,82.907-3.864,12.57-105.369,10.215-110.082-40.964-18.077-40.964-18.077V811.19h-22.3v14.734Z" transform="translate(-2396.673 -712.993)" fill="#0057d5"></path><circle id="Ellipse_29" data-name="Ellipse 29" cx="2.921" cy="2.921" r="2.921" transform="translate(82.193 69.983)" fill="#f4849c"></circle><circle id="Ellipse_30" data-name="Ellipse 30" cx="2.921" cy="2.921" r="2.921" transform="translate(57.291 69.983)" fill="#f4849c"></circle><path id="Path_4423" data-name="Path 4423" d="M2574.01,740.5c-2.627-.228-2.99-3.276-2.99-3.276a3.891,3.891,0,0,1,3.165-2.154,4.444,4.444,0,0,1,4.049,1.913c.148,2.027-1.644,3.736-4.221,3.517Z" transform="translate(-2503.734 -656.986)" fill="#f4849c"></path><path id="Path_4424" data-name="Path 4424" d="M2571.222,740.82c-1.093,1.061-2.636.349-4.2-.2l.09-.762c2.3,1.313,3.732.265,3.737.265h0l.23-.482.384.368c1.522,1.458,5.121-.037,5.2-.079l.333.693a14.737,14.737,0,0,1-3.482.982,3.646,3.646,0,0,1-2.294-.778Z" transform="translate(-2500.792 -660.377)" fill="#8f001c"></path><path id="Path_4425" data-name="Path 4425" d="M2573,706.871c-.331-.916.68-5.221.8-5.711l.376.09c-.444,1.871-1.027,4.877-.807,5.488.2.561,1.739.894,2.662.977l-.031.384c-.267-.024-2.635-.259-2.99-1.228Z" transform="translate(-2505.138 -632.08)" fill="#8f001c"></path><path id="Path_4426" data-name="Path 4426" d="M2613.84,646.664a5.137,5.137,0,0,1,4,1.744c-3.683-1.694-10.413,2.826-9.971.363C2607.962,648.254,2611.26,646.738,2613.84,646.664Z" transform="translate(-2530.819 -592.003)" fill="#8f001c"></path><path id="Path_4427" data-name="Path 4427" d="M2539.586,646.384a3.052,3.052,0,0,0-3.2,1.842c3.684-1.694,9.6,2.728,9.164.265C2545.458,647.975,2542.164,646.458,2539.586,646.384Z" transform="translate(-2478.267 -591.797)" fill="#8f001c"></path><path id="Path_4428" data-name="Path 4428" d="M2533.39,673.622c-4.126-.8-5.015.474-5.185.844.053.1.14.243.265.423l-.635.437a4.153,4.153,0,0,1-.394-.667l-.051-.106.016-.116a1.923,1.923,0,0,1,.844-1.167c1.064-.746,2.839-.881,5.279-.408,5.554,1.08,5.621,5.711,5.621,5.756h-.77c-.005-.164-.082-4.051-4.99-5Z" transform="translate(-2471.649 -611.067)" fill="#3f3f3f"></path><path id="Path_4429" data-name="Path 4429" d="M2606.5,681.188c0-.045.061-4.676,5.62-5.756,2.435-.474,4.21-.339,5.28.407a1.885,1.885,0,0,1,.844,1.162l.016.116-.05.106a4.8,4.8,0,0,1-.394.667l-.635-.437c.124-.183.209-.331.264-.423-.172-.379-1.072-1.649-5.184-.844-4.919.955-5,4.837-5,5h-.762Z" transform="translate(-2529.825 -612.957)" fill="#3f3f3f"></path><path id="Path_4430" data-name="Path 4430" d="M2647.213,674.253c.471-.037,1.132-.886,1.437-1.413l.5.288c-.1.169-.969,1.628-1.895,1.7l-.042-.577Z" transform="translate(-2559.762 -611.254)" fill="#3f3f3f"></path><path id="Path_4431" data-name="Path 4431" d="M2640.91,671.963c.474-.037,1.138-.887,1.442-1.413l.5.288c-.1.169-.969,1.628-1.895,1.7Z" transform="translate(-2555.129 -609.57)" fill="#3f3f3f"></path><path id="Path_4432" data-name="Path 4432" d="M2633.84,671.313c.474-.037,1.138-.886,1.442-1.413l.5.288c-.1.169-.968,1.627-1.895,1.7Z" transform="translate(-2549.93 -609.092)" fill="#3f3f3f"></path><path id="Path_4433" data-name="Path 4433" d="M2523.683,671.668l.5-.288c.3.527.963,1.376,1.437,1.413l-.045.577c-.927-.074-1.8-1.537-1.892-1.7Z" transform="translate(-2468.921 -610.18)" fill="#3f3f3f"></path><path id="Path_4434" data-name="Path 4434" d="M2529.983,669.378l.5-.289c.3.527.963,1.376,1.437,1.413l-.045.577c-.926-.074-1.8-1.538-1.892-1.7Z" transform="translate(-2473.554 -608.496)" fill="#3f3f3f"></path><path id="Path_4435" data-name="Path 4435" d="M2537.033,668.719l.5-.288c.3.527.963,1.376,1.437,1.413l-.045.577c-.924-.074-1.8-1.537-1.892-1.7Z" transform="translate(-2478.738 -608.011)" fill="#3f3f3f"></path><path id="Path_4436" data-name="Path 4436" d="M2316.035,1293.018s-20.458,4.927-23.61,3.16-19.257,1.826-21.453,5.065-17.108-2.329-17.052-6.377,12.353-20.085,17.844-20.424,33.044,4.377,33.044,4.377c11.781,8.315,11.228,14.2,11.228,14.2Z" transform="translate(-2270.546 -1053.643)" fill="#f9c785"></path><path id="Path_4437" data-name="Path 4437" d="M2517.229,964.824c-.59,16.208,5.6,61.885,5.6,61.885-6.486-4.718-27.415-1.94-55.55-1.94-20.8,0-20.5,1.2-20.5,1.2s-3,20.482-.945,20.318,10.275,6.078,34.735,10.791,75.559,6.761,77.914-17.992-18.857-104.913-21.511-108.351" transform="translate(-2411.146 -800.907)" fill="#0057d5"></path><path id="Path_4438" data-name="Path 4438" d="M2450.736,1286.1l-.746.191.087-.368c.844-1.082,11.771-1.31,20.787-1.31v.77c-18.243,0-20.061.939-20.209,1.045a.327.327,0,0,0,.082-.331Z" transform="translate(-2414.731 -1061.134)" fill="#68b6ff"></path><path id="Path_4439" data-name="Path 4439" d="M2482.413,1358.44c-17.28-3.334-26.635-7.494-31.125-9.492a12.236,12.236,0,0,0-3.506-1.294l-.061-.768c.7-.061,1.834.445,3.882,1.355,4.467,1.99,13.761,6.123,30.956,9.439,20.085,3.874,55.41,5.557,70.4-5.668a16.589,16.589,0,0,0,7.057-11.982l.768.074a17.326,17.326,0,0,1-7.362,12.525c-8.682,6.5-24.02,8.738-39.347,8.738a174.889,174.889,0,0,1-31.66-2.929Z" transform="translate(-2413.062 -1101.888)" fill="#68b6ff"></path><path id="Path_4440" data-name="Path 4440" d="M2716.622,909.466a1.167,1.167,0,0,0,1.582-.421,1.184,1.184,0,0,0-.416-1.577,24.38,24.38,0,0,0-9.378-3.93,1.178,1.178,0,0,0-1.421.807,1.165,1.165,0,0,0,.807,1.421,22.755,22.755,0,0,1,8.825,3.7Z" transform="translate(-2603.695 -780.885)" fill="#68b6ff"></path><path id="Path_4441" data-name="Path 4441" d="M2672.038,921.893a1.161,1.161,0,0,0,1.627-.005,1.174,1.174,0,0,0,0-1.633,86.8,86.8,0,0,0-8.134-7,1.164,1.164,0,0,0-1.577.415,1.193,1.193,0,0,0,.416,1.577,82.486,82.486,0,0,1,7.669,6.645h0Z" transform="translate(-2571.962 -787.921)" fill="#68b6ff"></path><path id="Path_4442" data-name="Path 4442" d="M2627.66,928.153a1.156,1.156,0,1,0,2.228-.614q-.786-2.751-1.569-5.5a1.156,1.156,0,1,0-2.228.614q.786,2.751,1.569,5.5Z" transform="translate(-2544.203 -793.89)" fill="#68b6ff"></path><path id="Path_4443" data-name="Path 4443" d="M2574.227,922.595a1.182,1.182,0,0,0,.807,1.421,1.165,1.165,0,0,0,1.421-.807q.818-4.708,1.627-9.418a1.182,1.182,0,0,0-.807-1.421,1.165,1.165,0,0,0-1.421.807q-.818,4.708-1.627,9.418Z" transform="translate(-2506.075 -787.371)" fill="#68b6ff"></path><path id="Path_4444" data-name="Path 4444" d="M2507.466,917.475a1.336,1.336,0,0,0-.339.815,1.146,1.146,0,0,0,.339.815,1.184,1.184,0,0,0,.815.339,1.138,1.138,0,0,0,.815-.339,33.336,33.336,0,0,1,4.742-4.9,1.168,1.168,0,0,0,0-1.633,1.181,1.181,0,0,0-1.633,0,33.186,33.186,0,0,0-4.742,4.9h0Z" transform="translate(-2456.748 -787.309)" fill="#68b6ff"></path><path id="Path_4445" data-name="Path 4445" d="M2463.13,885.692a1.188,1.188,0,0,0-.413,1.585,1.162,1.162,0,0,0,1.577.413,42.547,42.547,0,0,1,9.585-5.139,1.185,1.185,0,0,0,.807-1.421,1.163,1.163,0,0,0-1.421-.807,44.981,44.981,0,0,0-10.135,5.369Z" transform="translate(-2423.977 -763.789)" fill="#68b6ff"></path><path id="Path_4446" data-name="Path 4446" d="M2480.522,1291.441c-.106-1.474-2.414-1.479-2.31-.005a43.059,43.059,0,0,1-3.832,21.257c-.622,1.339,1.368,2.514,2,1.167a45.413,45.413,0,0,0,4.149-22.419h0Z" transform="translate(-2432.579 -1065.342)" fill="#68b6ff"></path><circle id="Ellipse_31" data-name="Ellipse 31" cx="2.914" cy="2.914" r="2.914" transform="translate(79.861 62.454)" fill="#03277f"></circle><circle id="Ellipse_32" data-name="Ellipse 32" cx="2.914" cy="2.914" r="2.914" transform="translate(59.263 62.129)" fill="#03277f"></circle></g><path id="Path_4448" data-name="Path 4448" d="M1742.076,968.29h92.783a24.278,24.278,0,0,1,24.266,24.266v87H1742.076a24.278,24.278,0,0,1-24.266-24.266V992.556A24.278,24.278,0,0,1,1742.076,968.29Z" transform="translate(-1607.344 -681.554)" fill="#f8ebda"></path><g id="Group_4128" data-name="Group 4128" transform="translate(110.465 255.706)" clip-path="url(#clip-path-3)"><path id="Path_4449" data-name="Path 4449" d="M1814.24,928.131s15.6-11.6,31.035-8,34.044,20.863,30.445,46.974,12.088,58.937,22.38,59.247.516,4.938,0,9.825,4.372,7.976,0,14.663-13.377,3.088-14.147,8.232-11.315,9.177-15.436,4.459-31.43-10.63-33.848-7.8-24.028,5.4-29.432,1.029-20.58-6.176-23.409-7.2-10.8-2.315-9.516-7.2,1.262-9.259-.14-11.575-4.75-5.1-3.721-6.923,23.922-14.025,24.695-37.505-3.342-54.354,21.1-58.212Z" transform="translate(-1754.909 -901.332)" fill="#8f001c"></path><path id="Path_4450" data-name="Path 4450" d="M1934.364,1171.02l-1.4,26.19s-14.808,6.753-16.865,6.737c0,0,7.841,12.6,28.484,11.064s24.727-10.548,24.727-10.548l-19.516-7.2,1.543-26.235h-16.973Z" transform="translate(-1863.627 -1086.342)" fill="#fdb94e"></path><path id="Path_4451" data-name="Path 4451" d="M1981.88,1193.531s12.218-2.826,17.375-8.238v-4.239l-16.56-1.283-.815,13.761Z" transform="translate(-1912 -1092.777)" fill="#f36e07"></path><path id="Path_4452" data-name="Path 4452" d="M2075.106,1741.858l7.814,132.776,12.874,154.626h-32.287l-17.46-158.225L2032.8,1740Z" transform="translate(-1949.446 -1504.756)" fill="#8f001c"></path><path id="Path_4453" data-name="Path 4453" d="M1839,1729.131l-47.506-3.911-9.717,146.754L1769.26,2013.4l35.669-.051,13.4-135.88Z" transform="translate(-1755.645 -1493.887)" fill="#8f001c"></path><path id="Path_4454" data-name="Path 4454" d="M1991.9,1029.682s.516,21.477.386,29.453-9.389,14.562-13.76,15.073c-2.826.333-13.888-3.371-16.2-10.058-1.871-5.4-1.609-27.24-1.736-32.387s27.587-6.325,31.313-2.083Z" transform="translate(-1896.343 -980.504)" fill="#fdb94e"></path><ellipse id="Ellipse_33" data-name="Ellipse 33" cx="4.975" cy="4.589" rx="4.975" ry="4.589" transform="translate(59.266 68.382)" fill="#fdb94e"></ellipse><ellipse id="Ellipse_34" data-name="Ellipse 34" cx="4.975" cy="4.589" rx="4.975" ry="4.589" transform="translate(92.622 68.382)" fill="#fdb94e"></ellipse><path id="Path_4455" data-name="Path 4455" d="M1981.213,1018.1s-12.718,4.684-15.285,2.345c-1.878,3.228-10.339,3.681-11.789,1.58-.22,2.038-5.917,14-8.489,16.237s-9.516-20.821,4.94-23.485,30.625,3.324,30.625,3.324Z" transform="translate(-1882.463 -970.946)" fill="#8f001c"></path><path id="Path_4456" data-name="Path 4456" d="M1854.352,1717.97s-2.744,25.365-4.115,30.1,35.531,18.262,45.547,18.6,42.255-8.452,45.341-13.186-4.8-32.462-4.8-32.462Z" transform="translate(-1815.166 -1488.556)" fill="#8f001c"></path><path id="Path_4457" data-name="Path 4457" d="M1798.334,1334.805c-1.029-.516,13.377-30.355,15.436-31.639s15.692-7.716,15.692-7.716a34.807,34.807,0,0,0,28.484,11.064c18.074-1.543,24.727-10.548,24.727-10.548s19.072,3.345,22.416,12.347,11.832,31.726,11.832,31.726l-19.034,3.773-3.4,54.01,12.58,18.7s-31,8.83-60.859,6.774-45.547-11.575-45.547-11.575l16.719-16.325.707-52.454-19.749-8.137Z" transform="translate(-1776.987 -1177.845)" fill="#f9c785"></path><g id="Group_4123" data-name="Group 4123" transform="translate(20.784 117.605)" clip-path="url(#clip-path-4)"><circle id="Ellipse_35" data-name="Ellipse 35" cx="25.454" cy="25.454" r="25.454" transform="translate(-13.494 32.628)" fill="#f36e07"></circle></g><g id="Group_4124" data-name="Group 4124" transform="translate(20.784 117.605)" clip-path="url(#clip-path-4)"><circle id="Ellipse_36" data-name="Ellipse 36" cx="25.454" cy="25.454" r="25.454" transform="translate(12.516 -27.386)" fill="#f36e07"></circle></g><g id="Group_4125" data-name="Group 4125" transform="translate(20.784 117.605)" clip-path="url(#clip-path-4)"><circle id="Ellipse_37" data-name="Ellipse 37" cx="25.454" cy="25.454" r="25.454" transform="translate(61.647 53.79)" fill="#f36e07"></circle></g><g id="Group_4126" data-name="Group 4126" transform="translate(20.784 117.605)" clip-path="url(#clip-path-4)"><circle id="Ellipse_38" data-name="Ellipse 38" cx="25.454" cy="25.454" r="25.454" transform="translate(76.368 -18)" fill="#f36e07"></circle></g><g id="Group_4127" data-name="Group 4127" transform="translate(20.784 117.605)" clip-path="url(#clip-path-4)"><circle id="Ellipse_39" data-name="Ellipse 39" cx="25.454" cy="25.454" r="25.454" transform="translate(-2.173 103.934)" fill="#f36e07"></circle></g><path id="Path_4463" data-name="Path 4463" d="M1981.474,1111.6c0,.532-.585.881-1.45,1.035a9.454,9.454,0,0,1-4.417-.45c-1.707-.6-3.051-1.707-2.747-3.305.524-2.81,8.616,0,8.616,2.718Z" transform="translate(-1905.336 -1039.788)" fill="#f8ebda"></path><path id="Path_4464" data-name="Path 4464" d="M2045.223,1110.46a8.63,8.63,0,0,1-4.086,1.217c-1.725.111-3.2-.262-3.2-1.109,0-2.723,8.095-5.528,8.619-2.723a2.521,2.521,0,0,1-1.339,2.614Z" transform="translate(-1953.226 -1039.03)" fill="#f8ebda"></path><circle id="Ellipse_40" data-name="Ellipse 40" cx="2.517" cy="2.517" r="2.517" transform="translate(69.295 67.919)" fill="#3f3f3f"></circle><circle id="Ellipse_41" data-name="Ellipse 41" cx="2.517" cy="2.517" r="2.517" transform="translate(86.866 67.644)" fill="#3f3f3f"></circle><path id="Path_4465" data-name="Path 4465" d="M1977.208,1110.693h-.672c0-1.514-3.295-3.3-5.756-3.525-.743-.066-2.024-.05-2.194.868l-.063.341-.336-.074c-.643-.138-1.807-.7-1.609-1.828l.662.116c-.093.532.445.831.8.963.355-.81,1.355-1.188,2.805-1.056,2.564.238,6.367,2.1,6.367,4.194Z" transform="translate(-1900.731 -1038.876)" fill="#3f3f3f"></path><path id="Path_4466" data-name="Path 4466" d="M2037.342,1108.778h-.672c0-2.091,3.8-3.956,6.367-4.194,1.426-.132,2.414.233,2.784,1.006.858-.437,1.7-1.04,1.7-1.339h.672c0,.934-1.858,1.852-2.426,2.112l-.392.18-.079-.421c-.169-.918-1.448-.939-2.194-.868C2040.642,1105.478,2037.342,1107.264,2037.342,1108.778Z" transform="translate(-1952.292 -1037.242)" fill="#3f3f3f"></path><path id="Path_4467" data-name="Path 4467" d="M1973.151,1102.774c-1.109,0-1.53-1.426-1.6-2.281l.669-.053c.037.439.286,1.691.961,1.662l.029.669a.235.235,0,0,1-.058.005Z" transform="translate(-1904.404 -1034.44)" fill="#3f3f3f"></path><path id="Path_4468" data-name="Path 4468" d="M2065.115,1102.5l-.034-.669a1.686,1.686,0,0,0,1.225-.482,1.254,1.254,0,0,0,.3-.831l.67-.045a1.954,1.954,0,0,1-.469,1.32A2.322,2.322,0,0,1,2065.115,1102.5Z" transform="translate(-1973.183 -1034.462)" fill="#3f3f3f"></path><path id="Path_4469" data-name="Path 4469" d="M2033.216,1078.557c.516,1.093,2.614-.865,6.176-1.23a13.942,13.942,0,0,1,4.7.844s-2.157-2.76-5.078-2.315c-3.943.6-6.438,1.339-5.793,2.7Z" transform="translate(-1949.678 -1016.325)" fill="#3f3f3f"></path><path id="Path_4470" data-name="Path 4470" d="M1977.551,1075.326c-.516,1.093-.939-.146-5.814-1.479-1.765-.482-4.7.844-4.7.844s2.18-2.9,5.078-2.316C1976.606,1073.278,1978.189,1073.966,1977.551,1075.326Z" transform="translate(-1901.088 -1013.745)" fill="#3f3f3f"></path><path id="Path_4471" data-name="Path 4471" d="M2025.369,1132.624a1.615,1.615,0,0,1-.479-.053l.169-.5a5.791,5.791,0,0,0,2.615-.466c.2-.111.228-.182.228-.182a36.465,36.465,0,0,0-2.141-5.952l.487-.2c.545,1.3,2.315,5.61,2.165,6.272a.85.85,0,0,1-.468.519,6.567,6.567,0,0,1-2.577.566Z" transform="translate(-1943.629 -1052.699)" fill="#f36e07"></path><circle id="Ellipse_42" data-name="Ellipse 42" cx="3.043" cy="3.043" r="3.043" transform="translate(66.987 74.386)" fill="#f36e07"></circle><circle id="Ellipse_43" data-name="Ellipse 43" cx="3.043" cy="3.043" r="3.043" transform="translate(88.552 74.386)" fill="#f36e07"></circle><ellipse id="Ellipse_44" data-name="Ellipse 44" cx="3.025" cy="1.974" rx="3.025" ry="1.974" transform="translate(77.935 81.69)" fill="#f36e07"></ellipse><path id="Path_4472" data-name="Path 4472" d="M2014.575,1164.737a3.216,3.216,0,0,1-1.667-.461c-.982.508-3.594.079-4.438-.079l.125-.662c1.916.357,3.811.41,4.051.116l.217-.262.262.217a2.638,2.638,0,0,0,2.829.111l.294.6a3.768,3.768,0,0,1-1.675.416Z" transform="translate(-1931.554 -1080.732)" fill="#8e021d"></path><circle id="Ellipse_45" data-name="Ellipse 45" cx="2.157" cy="2.157" r="2.157" transform="translate(59.57 75.037)" fill="#f9c785"></circle><circle id="Ellipse_46" data-name="Ellipse 46" cx="1.146" cy="1.146" r="1.146" transform="translate(59.89 76.413)" fill="#f8ebda"></circle><circle id="Ellipse_47" data-name="Ellipse 47" cx="2.157" cy="2.157" r="2.157" transform="translate(96.265 74.73)" fill="#f9c785"></circle><circle id="Ellipse_48" data-name="Ellipse 48" cx="1.146" cy="1.146" r="1.146" transform="translate(96.935 76.048)" fill="#f8ebda"></circle><path id="Path_4473" data-name="Path 4473" d="M1760.252,1574.438a11.179,11.179,0,0,1-2.128-.2c-5.472-1.069-9.138-5.93-10.6-14.06a51.113,51.113,0,0,1-.566-11.969l.669.063c-.021.227-1.958,22.853,10.622,25.309a10.661,10.661,0,0,0,2.069.191c14.054,0,40.54-23.83,65.812-59.557l.548.386c-13.483,19.064-27.238,34.83-39.776,45.6-10.789,9.265-20.128,14.229-26.656,14.229Z" transform="translate(-1739.154 -1338.723)" fill="#8f001c"></path><path id="Path_4474" data-name="Path 4474" d="M1815.515,1389.862a73.947,73.947,0,0,0-18.156-7.285l-.3-.074.045-.3c.773-5.144,9.513-21.535,9.884-22.229l.6.315c-.087.167-8.719,16.349-9.757,21.715a74.7,74.7,0,0,1,18.039,7.285l-.349.577Z" transform="translate(-1776.089 -1225.292)" fill="#8f001c"></path><path id="Path_4475" data-name="Path 4475" d="M1926.6,1305.863a32.045,32.045,0,0,1-17.82-5.028,25,25,0,0,1-6.624-6.155l-4.581,2.178-.286-.606,5.107-2.432.158.249c.082.13,8.489,12.917,28.17,10.908l.066.67q-2.187.218-4.189.217Z" transform="translate(-1849.795 -1176.646)" fill="#8f001c"></path><path id="Path_4476" data-name="Path 4476" d="M2187.312,1436.21c-.029-.2-2.826-20.45-3.337-25.542-.238-2.374-.307-8.539-.381-15.07-.093-7.817-.182-15.9-.561-18.86a34.159,34.159,0,0,1,.005-9.508l.662.116a34.1,34.1,0,0,0,.005,9.3c.381,3,.474,11.1.566,18.939.074,6.515.146,12.668.378,15.012.508,5.078,3.305,25.314,3.334,25.518l-.664.093Z" transform="translate(-2059.691 -1230.63)" fill="#8f001c"></path><path id="Path_4477" data-name="Path 4477" d="M2160.342,1534.424l-7.126-9.235-.005-.1-2.72-58.355h6.719v.672H2151.2l2.681,57.545,7,9.063Z" transform="translate(-2035.992 -1303.8)" fill="#8f001c"></path><path id="Path_4478" data-name="Path 4478" d="M2151.82,1474.049s3.218-2.548,9.135-2.464l.233-3.575h-9.368Z" transform="translate(-2036.97 -1304.741)" fill="#f36e07"></path></g><path id="Path_4480" data-name="Path 4480" d="M24.266,0H141.315V87a24.278,24.278,0,0,1-24.266,24.266H24.266A24.278,24.278,0,0,1,0,87V24.266A24.278,24.278,0,0,1,24.266,0Z" transform="translate(419.453 468.012) rotate(180)" fill="#f36e07"></path><g id="Group_4130" data-name="Group 4130" transform="translate(278.137 332.516)" clip-path="url(#clip-path-9)"><path id="Path_4481" data-name="Path 4481" d="M2349.8,1835.742s6.955,43.208,4.276,68.805-29.617,16.547-36.185,8.759-3.265-84.516-3.265-84.516l35.171,6.954Z" transform="translate(-2323.752 -1646.86)" fill="#f9c785"></path><path id="Path_4482" data-name="Path 4482" d="M2488.679,1457.054c2.628-2.834,2.951-12.08,2.652-20.3-.281-7.579-1.088-14.287-1.088-14.287s22.364-9.752,26.836-3.139a216.369,216.369,0,0,0-2.072,25.187c-.024,5.681.487,10.567,2.072,12.342,4.671,5.255,22.951,8.989,22.951,8.989s-14.006,12.728-42.4,8.2-29.294-8.4-29.294-8.4,15.288-3.139,20.342-8.587Z" transform="translate(-2437.402 -1344.062)" fill="#f9c785"></path><path id="Path_4483" data-name="Path 4483" d="M2577.943,1419.345a216.369,216.369,0,0,0-2.072,25.187,33.564,33.564,0,0,1-23.673-7.761c-.281-7.579-1.088-14.287-1.088-14.287s22.363-9.746,26.836-3.138Z" transform="translate(-2498.269 -1344.075)" fill="#93001e"></path><path id="Path_4484" data-name="Path 4484" d="M2438.61,1654.46l6.56,70.237c-20.418,31.26-75.246,39.7-98.406,18.5l-7.24-84.463-22.583-10.627s2.652-46.5,7.124-50.97,45.958-14.049,45.958-14.049,1.881,12.231,23.859,14.049,21.609-12.85,21.609-12.85,32.959,5,37.82,13.557,25.462,41.311,25.462,41.311l-40.162,15.306Z" transform="translate(-2326.067 -1466.178)" fill="#3f3f3f"></path><path id="Path_4485" data-name="Path 4485" d="M2521.5,1744.016l20.337-32.4,21.876,30.1-21.583,27.156-20.633-24.862Zm20.387-31.035-19.447,30.974,19.682,23.716,20.636-25.97Z" transform="translate(-2476.495 -1560.696)" fill="#68b6ff"></path><rect id="Rectangle_2510" data-name="Rectangle 2510" width="16.486" height="0.762" transform="translate(46.995 161.411)" fill="#68b6ff"></rect><rect id="Rectangle_2511" data-name="Rectangle 2511" width="16.486" height="0.762" transform="translate(43.954 167.003)" fill="#68b6ff"></rect><rect id="Rectangle_2512" data-name="Rectangle 2512" width="16.486" height="0.762" transform="translate(40.911 172.594)" fill="#68b6ff"></rect><rect id="Rectangle_2513" data-name="Rectangle 2513" width="16.486" height="0.762" transform="translate(37.871 178.186)" fill="#68b6ff"></rect><path id="Path_4486" data-name="Path 4486" d="M2726.658,1600.3c-4.715-8.3-37.219-13.319-37.547-13.369l.114-.754c1.357.206,33.2,5.131,38.1,13.747,4.8,8.452,25.248,40.969,25.457,41.295l-.643.405c-.206-.331-20.662-32.859-25.476-41.327Z" transform="translate(-2599.751 -1468.451)" fill="#f8ebda"></path><path id="Path_4487" data-name="Path 4487" d="M2346.077,1923.22l-.138-.1L2338.7,1838.7l-22.382-10.537.326-.691,22.781,10.72,7.245,84.511c12.043,8.9,28.8,12.265,47.225,9.46,20.871-3.176,40.173-13.85,50.422-27.865l-6.547-70.091.76-.069,6.576,70.38-.084.114c-10.342,14.234-29.884,25.073-51.007,28.288a83.3,83.3,0,0,1-12.53.974c-13.7,0-25.981-3.655-35.407-10.67Z" transform="translate(-2325.611 -1645.889)" fill="#f8ebda"></path><path id="Path_4488" data-name="Path 4488" d="M2646.118,1813.006l21.715,53.261-49.758,46.788s-14.851,5.2-18.566,17.823-4.07,40.125,7.426,37.135,11.884-31.194,30.453-48.276,69.07-44.563,69.813-53.476-25.991-66.842-25.991-66.842l-35.09,13.586Z" transform="translate(-2532.159 -1625.262)" fill="#f9c785"></path><path id="Path_4489" data-name="Path 4489" d="M2564.452,1281.7c1.942,5.25,3.308,29.945-2.53,40.644s-27.042,11.376-34.237,2.429-4.9-40.924,1.567-46.77C2533.334,1274.31,2562.506,1276.449,2564.452,1281.7Z" transform="translate(-2477.779 -1240.465)" fill="#f9c785"></path><path id="Path_4490" data-name="Path 4490" d="M2543.643,1223.438c-1.942,0-3.89-18.476-7-18.476s-31.75,1.029-36.367-2.53-11.281-30.432,1.778-31.6,7.846,9.871,13.485,10.067,1.069-6.081,11.376-5.689,4.451,9.823,10.871,10.212.41-6.708,10.718-3.014,2.966,35.571,4.885,39.345c0,0-7.8,1.688-9.743,1.688Z" transform="translate(-2456.578 -1162.95)" fill="#3f3f3f"></path><path id="Path_4491" data-name="Path 4491" d="M2504.578,1277.738c1.273,7.333-9.169,4.337-8.928,3s-.9-15.152-1.318-20.209,3.231-12.1,7.637-8.947c8.976,6.417,1.334,18.82,2.609,26.158Z" transform="translate(-2456.493 -1221.82)" fill="#3f3f3f"></path><path id="Path_4492" data-name="Path 4492" d="M2669.924,1362.809c1.847,1.265,5.443,3.112,8.846,0s4.181-15.465-.683-17.7-8.084,4.591-9.143,7.1c-1.556,3.7-.871,9.333.977,10.6Z" transform="translate(-2584.288 -1290.849)" fill="#f9c785"></path><path id="Path_4493" data-name="Path 4493" d="M2509.47,1362.809c-1.847,1.265-5.443,3.112-8.847,0s-4.181-15.459.683-17.7,8.084,4.591,9.143,7.1c1.556,3.7.879,9.336-.976,10.6Z" transform="translate(-2459.114 -1290.849)" fill="#f9c785"></path><path id="Path_4494" data-name="Path 4494" d="M2628.312,1369.527c-.053,1.318-1.675,2.329-3.647,2.924a13.765,13.765,0,0,1-4.724.572c-1.41-.1-2.421-.516-2.421-1.3.016-4.1,10.969-6.277,10.794-2.191Z" transform="translate(-2547.106 -1307.525)" fill="#f8ebda"></path><path id="Path_4495" data-name="Path 4495" d="M2552.508,1371.719c0,1.148-2.165,1.516-4.562,1.249a12.289,12.289,0,0,1-4.618-1.371,2.762,2.762,0,0,1-1.614-2.072c-.172-4.083,10.781-1.91,10.794,2.2Z" transform="translate(-2491.359 -1307.524)" fill="#f8ebda"></path><path id="Path_4496" data-name="Path 4496" d="M2620.828,1332.389c-1.752-.156-4.887,1.215-6.3,1.59s-2.869-1.421-2.1-2.482,5.652-2.093,7.314-1.94a14.909,14.909,0,0,1,6.563,2.961S2622.574,1332.543,2620.828,1332.389Z" transform="translate(-2543.208 -1279.726)" fill="#3f3f3f"></path><path id="Path_4497" data-name="Path 4497" d="M2534.733,1330.569c1.751-.156,4.887,1.215,6.3,1.591s2.869-1.421,2.1-2.482-5.652-2.093-7.314-1.94a14.906,14.906,0,0,0-6.563,2.961S2532.981,1330.723,2534.733,1330.569Z" transform="translate(-2482.194 -1278.388)" fill="#3f3f3f"></path><g id="Group_4129" data-name="Group 4129" transform="translate(45.484 59.819)" opacity="0.43"><path id="Path_4498" data-name="Path 4498" d="M2523.317,1370.331c3.429,1.058,9.476,3.885,10.315,10.73,0,0,3.167-1.831,8.857-1.54a18.655,18.655,0,0,1,9.127,2.7s6.687-12.493,14.533-14.885c-.172,8.042-1.3,16.664-4.165,21.919-5.827,10.7-27.039,11.379-34.229,2.437-3.216-3.993-4.533-12.578-4.438-21.369Z" transform="translate(-2523.312 -1367.34)" fill="#3f3f3f"></path></g><path id="Path_4499" data-name="Path 4499" d="M2576.432,1390.186a1.743,1.743,0,0,1-.847-1.286c-.4-2.6,3.827-7.47,4.006-7.679l.574.5c-1.162,1.329-4.118,5.192-3.827,7.06a1,1,0,0,0,.49.752c2.387,1.445,5.237-1.307,5.263-1.334l.532.545a7.053,7.053,0,0,1-4.268,1.982,3.669,3.669,0,0,1-1.926-.54Z" transform="translate(-2516.249 -1317.728)" fill="#3f3f3f"></path><path id="Path_4500" data-name="Path 4500" d="M2590.88,1429.846l.232-.725c4.218,1.363,6.441-.961,6.534-1.061l.281.257-.281-.257.564.513a6.328,6.328,0,0,1-4.543,1.736A9.086,9.086,0,0,1,2590.88,1429.846Z" transform="translate(-2527.515 -1352.173)" fill="#3f3f3f"></path><circle id="Ellipse_49" data-name="Ellipse 49" cx="2.599" cy="2.599" r="2.599" transform="translate(72.891 60.226)" fill="#3f3f3f"></circle><circle id="Ellipse_50" data-name="Ellipse 50" cx="2.599" cy="2.599" r="2.599" transform="translate(52.838 59.916)" fill="#3f3f3f"></circle><path id="Path_4501" data-name="Path 4501" d="M2603.98,1359.619a8.119,8.119,0,1,1,8.119,8.119A8.123,8.123,0,0,1,2603.98,1359.619Zm.762,0a7.357,7.357,0,1,0,7.357-7.357A7.365,7.365,0,0,0,2604.742,1359.619Z" transform="translate(-2537.149 -1295.873)" fill="#3f3f3f"></path><path id="Path_4502" data-name="Path 4502" d="M2527.59,1359.619a8.119,8.119,0,1,1,8.119,8.119A8.127,8.127,0,0,1,2527.59,1359.619Zm.762,0a7.356,7.356,0,1,0,7.356-7.357A7.365,7.365,0,0,0,2528.352,1359.619Z" transform="translate(-2480.973 -1295.873)" fill="#3f3f3f"></path><circle id="Ellipse_51" data-name="Ellipse 51" cx="2.104" cy="2.104" r="2.104" transform="translate(27.172 134.782)" fill="#3f3f3f"></circle><circle id="Ellipse_52" data-name="Ellipse 52" cx="0.974" cy="0.974" r="0.974" transform="translate(29.276 141.456)" fill="#3f3f3f"></circle><path id="Path_4503" data-name="Path 4503" d="M2368.372,1735.888c-10.307,2.609-10.49,9.331-10.463,19.73.045,17.51,15.107,69.475,3.757,81.38s-36.391,5.2-31.8-35.656c3.6-32.062,14.972-71.563,21.514-82.15s40.6-2.464,35.457,6.5c-2.344,4.083-8.156,7.582-18.463,10.191Z" transform="translate(-2335.164 -1562.58)" fill="#f9c785"></path><path id="Path_4504" data-name="Path 4504" d="M2339.311,1840.529c-5.089-2.757-9.452-8.082-11.967-14.6-2.934-7.616-3.337-16.51-1.164-25.722,1.8-7.642,3.644-15.93,5.422-23.946,5.734-25.846,11.156-50.258,16.137-58.318,1.268-2.053,4.883-5.464,14.84-5.176,6.354.18,13.226,1.948,17.51,4.5,3.9,2.318,5.234,5.007,3.763,7.571-2.514,4.374-8.8,7.865-18.7,10.371l-.188-.738c9.685-2.456,15.82-5.824,18.225-10.016,1.659-2.89-1.474-5.338-3.49-6.536-8.537-5.083-26.865-6.766-31.311.426-4.912,7.955-10.572,33.438-16.042,58.08-1.781,8.015-3.62,16.306-5.425,23.957-2.138,9.061-1.746,17.8,1.135,25.272,2.448,6.356,6.687,11.532,11.617,14.208,5.6,3.035,11.231,2.445,15.062-1.575l.551.524a11.662,11.662,0,0,1-8.609,3.739,15.53,15.53,0,0,1-7.365-2.016Z" transform="translate(-2331.849 -1561.524)" fill="#f36e07"></path></g><rect id="Rectangle_2514" data-name="Rectangle 2514" width="41.782" height="53.079" transform="translate(398.037 171.319)" fill="#68b6ff"></rect><rect id="Rectangle_2515" data-name="Rectangle 2515" width="41.782" height="53.079" transform="translate(401.209 168.615)" fill="#f8ebda"></rect><rect id="Rectangle_2516" data-name="Rectangle 2516" width="25.539" height="2.723" transform="translate(409.331 177.342)" fill="#f36e07"></rect><rect id="Rectangle_2517" data-name="Rectangle 2517" width="25.539" height="2.723" transform="translate(409.331 185.249)" fill="#f36e07"></rect><rect id="Rectangle_2518" data-name="Rectangle 2518" width="25.539" height="2.723" transform="translate(409.331 193.154)" fill="#f36e07"></rect><rect id="Rectangle_2519" data-name="Rectangle 2519" width="25.539" height="2.723" transform="translate(409.331 201.061)" fill="#f36e07"></rect><rect id="Rectangle_2520" data-name="Rectangle 2520" width="25.539" height="2.723" transform="translate(409.331 208.965)" fill="#f36e07"></rect><rect id="Rectangle_2521" data-name="Rectangle 2521" width="50.197" height="63.767" transform="translate(83.918 441.737) rotate(-90)" fill="#68b6ff"></rect><rect id="Rectangle_2522" data-name="Rectangle 2522" width="50.197" height="63.767" transform="translate(80.666 437.924) rotate(-90)" fill="#fdb94e"></rect><rect id="Rectangle_2523" data-name="Rectangle 2523" width="45.664" height="4.25" transform="translate(89.099 397.328)" fill="#f36e07"></rect><rect id="Rectangle_2524" data-name="Rectangle 2524" width="45.664" height="4.25" transform="translate(89.099 406.455)" fill="#f8ebda"></rect><rect id="Rectangle_2525" data-name="Rectangle 2525" width="45.664" height="4.25" transform="translate(89.099 415.579)" fill="#f8ebda"></rect><rect id="Rectangle_2526" data-name="Rectangle 2526" width="45.664" height="4.25" transform="translate(89.099 424.706)" fill="#f8ebda"></rect><rect id="Rectangle_2527" data-name="Rectangle 2527" width="24.092" height="48.133" transform="translate(81.542 218.573)" fill="#f36e07"></rect><rect id="Rectangle_2528" data-name="Rectangle 2528" width="24.092" height="27.1" transform="translate(110.113 239.606)" fill="#fdb94e"></rect><rect id="Rectangle_2529" data-name="Rectangle 2529" width="24.092" height="38.757" transform="translate(53.298 227.952)" fill="#0057d5"></rect><rect id="Rectangle_2530" data-name="Rectangle 2530" width="111.135" height="1.932" transform="translate(36.46 265.743)" fill="#3f3f3f"></rect><path id="Path_4506" data-name="Path 4506" d="M2254.484,1558.2h9a2.655,2.655,0,0,1,2.654,2.654v7.232h-11.654a2.656,2.656,0,0,1-2.654-2.654v-4.578A2.656,2.656,0,0,1,2254.484,1558.2Z" transform="translate(-2000.049 -1115.359)" fill="#f36e07"></path><path id="Path_4507" data-name="Path 4507" d="M2254.484,1608.6h9a2.655,2.655,0,0,1,2.654,2.654v7.232h-11.654a2.656,2.656,0,0,1-2.654-2.654v-4.578A2.656,2.656,0,0,1,2254.484,1608.6Z" transform="translate(-2000.049 -1152.422)" fill="#f36e07"></path><path id="Path_4508" data-name="Path 4508" d="M2254.484,1659h9a2.655,2.655,0,0,1,2.654,2.654v7.232h-11.654a2.656,2.656,0,0,1-2.654-2.654v-4.578a2.656,2.656,0,0,1,2.654-2.654Z" transform="translate(-2000.049 -1189.485)" fill="#f36e07"></path><rect id="Rectangle_2531" data-name="Rectangle 2531" width="69.083" height="21.146" transform="translate(240.042 350.145)" fill="#0a468e"></rect><rect id="Rectangle_2532" data-name="Rectangle 2532" width="69.083" height="21.146" transform="translate(236.816 347.158)" fill="#3c9eef"></rect><g id="Group_4131" data-name="Group 4131" transform="translate(284.946 351.484)" opacity="0.32"><path id="Path_4509" data-name="Path 4509" d="M2383.646,1225.942a6.486,6.486,0,1,1,6.487-6.486A6.493,6.493,0,0,1,2383.646,1225.942Zm0-9.079a2.593,2.593,0,1,0,2.594,2.593A2.6,2.6,0,0,0,2383.646,1216.863Z" transform="translate(-2377.16 -1212.97)" fill="#0f7ce8"></path></g><path id="Path_4510" data-name="Path 4510" d="M2383.241,1225.683a6.639,6.639,0,0,1-6.632-6.632h4.181a2.449,2.449,0,1,0,2.45-2.45v-4.181a6.632,6.632,0,0,1,0,13.263Z" transform="translate(-2091.809 -861.081)" fill="#0078c9"></path><g id="Group_4132" data-name="Group 4132" transform="translate(263.755 351.394)" opacity="0.32"><path id="Path_4511" data-name="Path 4511" d="M2303.566,1225.6a6.486,6.486,0,1,1,6.486-6.486A6.493,6.493,0,0,1,2303.566,1225.6Zm0-9.079a2.593,2.593,0,1,0,2.593,2.593A2.6,2.6,0,0,0,2303.566,1216.523Z" transform="translate(-2297.08 -1212.63)" fill="#0f7ce8"></path></g><g id="Group_4133" data-name="Group 4133" transform="translate(244.207 351.961)" opacity="0.32"><path id="Path_4512" data-name="Path 4512" d="M2229.7,1227.742a6.486,6.486,0,1,1,6.486-6.486A6.493,6.493,0,0,1,2229.7,1227.742Zm0-9.08a2.593,2.593,0,1,0,2.594,2.594A2.6,2.6,0,0,0,2229.7,1218.663Z" transform="translate(-2223.21 -1214.77)" fill="#0f7ce8"></path></g><path id="Path_4513" data-name="Path 4513" d="M2192.469,1212.185h-.119v-21.2h69.144v.119h-69.025Z" transform="translate(-1956.309 -845.315)" fill="#6ec1f9"></path><path id="Path_4514" data-name="Path 4514" d="M2229.521,1226.81a6.631,6.631,0,0,1-4.35-11.635l2.744,3.154a2.45,2.45,0,1,0,1.6-.6v-4.181a6.632,6.632,0,0,1,0,13.263Z" transform="translate(-1978.768 -861.912)" fill="#0a468e"></path><path id="Path_4515" data-name="Path 4515" d="M2313.293,1224.912a6.878,6.878,0,0,1-3.353-.873l2.276-4.067a2.18,2.18,0,0,0,1.077.278,2.21,2.21,0,0,0,0-4.419v-4.66a6.87,6.87,0,0,1,0,13.739Z" transform="translate(-2042.782 -860.162)" fill="#8cc7f9"></path><path id="Path_4516" data-name="Path 4516" d="M1569.434,372.179l-24.007-24.007-23.388,23.385-2.12-2.12,25.507-25.507,26.129,26.129Z" transform="translate(-1461.821 -222.416)" fill="#0a468e"></path><rect id="Rectangle_2533" data-name="Rectangle 2533" width="3.001" height="68.506" transform="translate(82.415 125.232)" fill="#0a468e"></rect><path id="Path_4517" data-name="Path 4517" d="M3051.744,1531.344l-2.1-2.1,23.8-23.8-23.187-23.184,2.1-2.1,25.288,25.288Z" transform="translate(-2586.738 -1057.963)" fill="#0a468e"></path><rect id="Rectangle_2534" data-name="Rectangle 2534" width="67.916" height="2.974" transform="translate(422.589 446.297)" fill="#0a468e"></rect></svg>