<svg xmlns="http://www.w3.org/2000/svg" xmlns:xlink="http://www.w3.org/1999/xlink" width="468.947" height="400.69" viewBox="0 0 468.947 400.69"><defs><clipPath id="clip-path"><path id="Path_4598" data-name="Path 4598" d="M1216.811,1193.686H1032.55a43.94,43.94,0,0,1-43.94-43.94V1095.62a43.94,43.94,0,0,1,43.94-43.94h140.322a43.94,43.94,0,0,1,43.939,43.94v98.063h0Z" transform="translate(-988.61 -1051.68)" fill="none"></path></clipPath><clipPath id="clip-path-2"><path id="Path_4637" data-name="Path 4637" d="M1216.811,1051.119H1032.55a43.94,43.94,0,0,1-43.94-43.94V953.053c0-24.267,19.673-115.093,43.94-115.093h140.322c24.267,0,43.939,90.826,43.939,115.093v98.063h0Z" transform="translate(-988.61 -837.96)" fill="none"></path></clipPath><clipPath id="clip-path-3"><path id="Path_4656" data-name="Path 4656" d="M416.873,852.465H616.549a47.614,47.614,0,0,0,47.615-47.615V746.2a47.614,47.614,0,0,0-47.615-47.615H464.485A47.614,47.614,0,0,0,416.87,746.2v106.27h0Z" transform="translate(-416.87 -698.58)" fill="none"></path></clipPath></defs><g id="Group_4149" data-name="Group 4149" transform="translate(2656 -2148.885)"><g id="Group_4136" data-name="Group 4136" transform="translate(-2638.145 2182.937)" opacity="0.1"><path id="Path_4535" data-name="Path 4535" d="M514.353,376.96h284.1a43.873,43.873,0,0,1,43.853,43.853V538.419a43.873,43.873,0,0,1-43.853,43.853H470.5V420.813A43.873,43.873,0,0,1,514.353,376.96Z" transform="translate(-470.5 -376.96)" fill="#f36e07"></path></g><g id="Group_4137" data-name="Group 4137" transform="translate(-2594.608 2333.516)" opacity="0.1"><path id="Path_4536" data-name="Path 4536" d="M645.123,829.25h284.1A43.873,43.873,0,0,1,973.075,873.1V990.709a43.873,43.873,0,0,1-43.853,43.853H601.27V873.1A43.873,43.873,0,0,1,645.123,829.25Z" transform="translate(-601.27 -829.25)" fill="#f36e07"></path></g><g id="Group_4138" data-name="Group 4138" transform="translate(-2492.763 2271.272)" opacity="0.1"><path id="Path_4537" data-name="Path 4537" d="M0,0H269.653a36.074,36.074,0,0,1,36.056,36.056v96.7a36.074,36.074,0,0,1-36.056,36.056H36.056A36.074,36.074,0,0,1,0,132.758V0H0Z" transform="translate(305.709 168.814) rotate(180)" fill="#f36e07"></path></g><g id="Group_4145" data-name="Group 4145" transform="translate(-2465.653 2407.569)" clip-path="url(#clip-path)"><rect id="Rectangle_2535" data-name="Rectangle 2535" width="793.875" height="368.066" transform="translate(-370.86 -36.855)" fill="#0f89ed"></rect><path id="Path_4538" data-name="Path 4538" d="M-151.28,1461.21h-23.038l-4.551,72.531,7.681,43.52H-64.24l3.982-25.6H-125.4Z" transform="translate(-209.815 -1324.867)" fill="#3c9eef"></path><rect id="Rectangle_2536" data-name="Rectangle 2536" width="308.905" height="194.932" transform="translate(-8.956 -26.614)" fill="#a6d2f7"></rect><g id="Group_4139" data-name="Group 4139" transform="translate(101.692 4.078)" opacity="0.58"><path id="Path_4539" data-name="Path 4539" d="M1390.805,1063.93l-96.745,89.6v10.241l101.546-89.314Z" transform="translate(-1294.06 -1063.93)" fill="#fff"></path></g><g id="Group_4140" data-name="Group 4140" transform="translate(99.155 32.807)" opacity="0.58"><path id="Path_4540" data-name="Path 4540" d="M1383.731,1150.22l-96.745,89.6-.546,4.831,101.549-89.311Z" transform="translate(-1286.44 -1150.22)" fill="#fff"></path></g><g id="Group_4141" data-name="Group 4141" transform="translate(-8.956 16.876)" opacity="0.58"><path id="Path_4541" data-name="Path 4541" d="M1058.455,1102.37l-96.745,89.6v10.241l101.546-89.314Z" transform="translate(-961.71 -1102.37)" fill="#fff"></path></g><g id="Group_4142" data-name="Group 4142" transform="translate(-11.489 45.608)" opacity="0.58"><path id="Path_4542" data-name="Path 4542" d="M1051.388,1188.67l-96.745,89.6-.543,4.834,101.542-89.318Z" transform="translate(-954.1 -1188.67)" fill="#fff"></path></g><g id="Group_4143" data-name="Group 4143" transform="translate(203.807 7.777)" opacity="0.58"><path id="Path_4543" data-name="Path 4543" d="M1697.525,1075.04l-96.745,89.6v10.241l101.546-89.314Z" transform="translate(-1600.78 -1075.04)" fill="#fff"></path></g><g id="Group_4144" data-name="Group 4144" transform="translate(201.27 36.505)" opacity="0.58"><path id="Path_4544" data-name="Path 4544" d="M1690.451,1161.33l-96.745,89.6-.546,4.834,101.546-89.318Z" transform="translate(-1593.16 -1161.33)" fill="#fff"></path></g><rect id="Rectangle_2537" data-name="Rectangle 2537" width="22.186" height="196.806" transform="translate(82.919 -26.614)" fill="#3c9eef"></rect><rect id="Rectangle_2538" data-name="Rectangle 2538" width="22.186" height="196.806" transform="translate(195.274 -26.614)" fill="#3c9eef"></rect><path id="Path_4545" data-name="Path 4545" d="M669.322,1692.342H41.56V1581.694l12.418-28.984,296.77,1.109,318.574-.852Z" transform="translate(-356.858 -1385.904)" fill="#3c9eef"></path><path id="Path_4546" data-name="Path 4546" d="M1065.062,1535.7h64.591a6.8,6.8,0,0,0,6.8-6.8h0a6.8,6.8,0,0,0-6.8-6.8h-64.591a6.8,6.8,0,0,0-6.8,6.8h0A6.8,6.8,0,0,0,1065.062,1535.7Z" transform="translate(-1035.072 -1365.485)" fill="#0477aa"></path><path id="Path_4547" data-name="Path 4547" d="M1264.31,1380.541h21.77l5.157-12.461h-21.773Z" transform="translate(-1172.522 -1262.742)" fill="#1390e5"></path><path id="Path_4548" data-name="Path 4548" d="M1277.33,1381.27h14.762l3.5-8.45h-14.762Z" transform="translate(-1181.208 -1265.904)" fill="#3c9eef"></path><path id="Path_4549" data-name="Path 4549" d="M1290.368,1443.17H1262.3l-6.589-43.25h28.069Z" transform="translate(-1166.786 -1283.982)" fill="#1390e5"></path><path id="Path_4550" data-name="Path 4550" d="M1299.593,1445.3h-9.961l-6.592-42.188H1293Z" transform="translate(-1185.017 -1286.11)" fill="#68b6ff"></path><path id="Path_4551" data-name="Path 4551" d="M1136.9,1535.7h64.591a6.8,6.8,0,0,0,6.8-6.8h0a6.8,6.8,0,0,0-6.8-6.8H1136.9a6.8,6.8,0,0,0-6.8,6.8h0A6.8,6.8,0,0,0,1136.9,1535.7Z" transform="translate(-1082.994 -1365.485)" fill="#1b86ce"></path><path id="Path_4552" data-name="Path 4552" d="M1149.076,1538.978h60.879a3.506,3.506,0,0,0,3.506-3.506v-.047a3.508,3.508,0,0,0-3.506-3.506h-60.879a3.506,3.506,0,0,0-3.506,3.506v.047A3.508,3.508,0,0,0,1149.076,1538.978Z" transform="translate(-1093.314 -1372.036)" fill="#3c9eef"></path><path id="Path_4553" data-name="Path 4553" d="M1234.909,1402.86l-6.089,6.086h37.594l6.339-6.336Z" transform="translate(-1148.848 -1285.776)" fill="#0477aa"></path><rect id="Rectangle_2539" data-name="Rectangle 2539" width="48.407" height="2.866" transform="translate(75.175 121.664)" fill="#1390e5"></rect><path id="Path_4554" data-name="Path 4554" d="M1218.842,1535.7h64.591a6.8,6.8,0,0,0,6.8-6.8h0a6.8,6.8,0,0,0-6.8-6.8h-64.591a6.8,6.8,0,0,0-6.8,6.8h0A6.8,6.8,0,0,0,1218.842,1535.7Z" transform="translate(-1137.654 -1365.485)" fill="#0477aa"></path><path id="Path_4555" data-name="Path 4555" d="M1418.1,1380.541h21.767l5.157-12.461h-21.77Z" transform="translate(-1275.112 -1262.742)" fill="#1390e5"></path><path id="Path_4556" data-name="Path 4556" d="M1431.11,1381.27h14.765l3.5-8.45h-14.762Z" transform="translate(-1283.79 -1265.904)" fill="#3c9eef"></path><path id="Path_4557" data-name="Path 4557" d="M1444.151,1443.17h-28.072l-6.589-43.25h28.072Z" transform="translate(-1269.368 -1283.982)" fill="#1390e5"></path><path id="Path_4558" data-name="Path 4558" d="M1447.4,1445.3h-9.961l-6.589-42.188h9.961Z" transform="translate(-1283.617 -1286.11)" fill="#68b6ff"></path><path id="Path_4559" data-name="Path 4559" d="M1290.682,1535.7h64.591a6.8,6.8,0,0,0,6.8-6.8h0a6.8,6.8,0,0,0-6.8-6.8h-64.591a6.8,6.8,0,0,0-6.8,6.8h0A6.8,6.8,0,0,0,1290.682,1535.7Z" transform="translate(-1185.577 -1365.485)" fill="#1b86ce"></path><path id="Path_4560" data-name="Path 4560" d="M1302.866,1538.978h60.875a3.506,3.506,0,0,0,3.506-3.506v-.047a3.508,3.508,0,0,0-3.506-3.506h-60.875a3.506,3.506,0,0,0-3.506,3.506v.047A3.508,3.508,0,0,0,1302.866,1538.978Z" transform="translate(-1195.903 -1372.036)" fill="#3c9eef"></path><path id="Path_4561" data-name="Path 4561" d="M1388.7,1402.86l-6.086,6.086H1420.2l6.339-6.336Z" transform="translate(-1251.437 -1285.776)" fill="#0477aa"></path><rect id="Rectangle_2540" data-name="Rectangle 2540" width="48.407" height="2.866" transform="translate(126.375 121.664)" fill="#1390e5"></rect><path id="Path_4562" data-name="Path 4562" d="M1381.172,1535.7h64.591a6.8,6.8,0,0,0,6.8-6.8h0a6.8,6.8,0,0,0-6.8-6.8h-64.591a6.8,6.8,0,0,0-6.8,6.8h0A6.8,6.8,0,0,0,1381.172,1535.7Z" transform="translate(-1245.94 -1365.485)" fill="#0477aa"></path><path id="Path_4563" data-name="Path 4563" d="M1580.43,1380.541h21.77l5.154-12.461h-21.77Z" transform="translate(-1383.398 -1262.742)" fill="#1390e5"></path><path id="Path_4564" data-name="Path 4564" d="M1593.44,1381.27H1608.2l3.5-8.45h-14.765Z" transform="translate(-1392.076 -1265.904)" fill="#3c9eef"></path><path id="Path_4565" data-name="Path 4565" d="M1606.488,1443.17h-28.072l-6.585-43.25H1599.9Z" transform="translate(-1377.661 -1283.982)" fill="#1390e5"></path><path id="Path_4566" data-name="Path 4566" d="M1615.71,1445.3h-9.961l-6.589-42.188h9.961Z" transform="translate(-1395.892 -1286.11)" fill="#68b6ff"></path><path id="Path_4567" data-name="Path 4567" d="M1453.022,1535.7h64.591a6.8,6.8,0,0,0,6.8-6.8h0a6.8,6.8,0,0,0-6.8-6.8h-64.591a6.8,6.8,0,0,0-6.8,6.8h0A6.8,6.8,0,0,0,1453.022,1535.7Z" transform="translate(-1293.87 -1365.485)" fill="#1b86ce"></path><path id="Path_4568" data-name="Path 4568" d="M1465.2,1538.978h60.879a3.506,3.506,0,0,0,3.506-3.506v-.047a3.506,3.506,0,0,0-3.506-3.506H1465.2a3.506,3.506,0,0,0-3.506,3.506v.047A3.508,3.508,0,0,0,1465.2,1538.978Z" transform="translate(-1304.189 -1372.036)" fill="#3c9eef"></path><path id="Path_4569" data-name="Path 4569" d="M1551.026,1402.86l-6.086,6.086h37.594l6.336-6.336Z" transform="translate(-1359.723 -1285.776)" fill="#0477aa"></path><rect id="Rectangle_2541" data-name="Rectangle 2541" width="48.407" height="2.866" transform="translate(180.416 121.664)" fill="#1390e5"></rect><path id="Path_4570" data-name="Path 4570" d="M1543.512,1535.7H1608.1a6.8,6.8,0,0,0,6.8-6.8h0a6.8,6.8,0,0,0-6.8-6.8h-64.591a6.8,6.8,0,0,0-6.8,6.8h0A6.8,6.8,0,0,0,1543.512,1535.7Z" transform="translate(-1354.233 -1365.485)" fill="#0477aa"></path><path id="Path_4571" data-name="Path 4571" d="M1742.76,1380.541h21.767l5.157-12.461h-21.767Z" transform="translate(-1491.684 -1262.742)" fill="#1390e5"></path><path id="Path_4572" data-name="Path 4572" d="M1755.77,1381.27h14.765l3.5-8.45h-14.765Z" transform="translate(-1500.363 -1265.904)" fill="#3c9eef"></path><path id="Path_4573" data-name="Path 4573" d="M1768.811,1443.17h-28.072l-6.589-43.25h28.072Z" transform="translate(-1485.94 -1283.982)" fill="#1390e5"></path><path id="Path_4574" data-name="Path 4574" d="M1778.04,1445.3h-9.961l-6.589-42.188h9.961Z" transform="translate(-1504.178 -1286.11)" fill="#68b6ff"></path><path id="Path_4575" data-name="Path 4575" d="M1615.342,1535.7h64.591a6.8,6.8,0,0,0,6.8-6.8h0a6.8,6.8,0,0,0-6.8-6.8h-64.591a6.8,6.8,0,0,0-6.8,6.8h0A6.8,6.8,0,0,0,1615.342,1535.7Z" transform="translate(-1402.149 -1365.485)" fill="#1b86ce"></path><path id="Path_4576" data-name="Path 4576" d="M1627.526,1538.978H1688.4a3.506,3.506,0,0,0,3.506-3.506v-.047a3.506,3.506,0,0,0-3.506-3.506h-60.875a3.506,3.506,0,0,0-3.506,3.506v.047A3.508,3.508,0,0,0,1627.526,1538.978Z" transform="translate(-1412.475 -1372.036)" fill="#3c9eef"></path><path id="Path_4577" data-name="Path 4577" d="M1713.356,1402.86l-6.086,6.086h37.594l6.339-6.336Z" transform="translate(-1468.009 -1285.776)" fill="#0477aa"></path><rect id="Rectangle_2542" data-name="Rectangle 2542" width="48.407" height="2.866" transform="translate(234.463 121.664)" fill="#1390e5"></rect><rect id="Rectangle_2543" data-name="Rectangle 2543" width="63.715" height="276.195" transform="translate(-69.825 -80.402)" fill="#68b6ff"></rect><path id="Path_4578" data-name="Path 4578" d="M970.26,810.18h3.982l.566,242.06-4.548,34.132Z" transform="translate(-976.369 -890.582)" fill="#0f89ed"></path><rect id="Rectangle_2544" data-name="Rectangle 2544" width="214.754" height="190.577" transform="translate(-284.675 -23.768)" fill="#0f89ed"></rect><path id="Path_4579" data-name="Path 4579" d="M591.337,1337.877h0a5.564,5.564,0,0,0,5.547-5.547V1327.5a5.564,5.564,0,0,0-5.547-5.547h0a5.564,5.564,0,0,0-5.547,5.547v4.834A5.564,5.564,0,0,0,591.337,1337.877Z" transform="translate(-719.899 -1231.97)" fill="#056e93"></path><path id="Path_4580" data-name="Path 4580" d="M487.956,1337.877h0a5.564,5.564,0,0,0,5.547-5.547V1327.5a5.564,5.564,0,0,0-5.547-5.547h0a5.564,5.564,0,0,0-5.547,5.547v4.834A5.564,5.564,0,0,0,487.956,1337.877Z" transform="translate(-650.937 -1231.97)" fill="#056e93"></path><rect id="Rectangle_2545" data-name="Rectangle 2545" width="37.83" height="8.25" transform="translate(-163.124 94.245)" fill="#056e93"></rect><path id="Path_4581" data-name="Path 4581" d="M608.183,1404.8h1.009a6.032,6.032,0,0,0,6.013-6.013v-10.161a6.032,6.032,0,0,0-6.013-6.013h-1.009a6.032,6.032,0,0,0-6.013,6.013v10.161A6.029,6.029,0,0,0,608.183,1404.8Z" transform="translate(-730.826 -1272.435)" fill="#056e93"></path><path id="Path_4582" data-name="Path 4582" d="M486.713,1404.8h1.009a6.032,6.032,0,0,0,6.013-6.013v-10.161a6.032,6.032,0,0,0-6.013-6.013h-1.009a6.032,6.032,0,0,0-6.013,6.013v10.161A6.029,6.029,0,0,0,486.713,1404.8Z" transform="translate(-649.797 -1272.435)" fill="#056e93"></path><rect id="Rectangle_2546" data-name="Rectangle 2546" width="37.83" height="8.25" transform="translate(-159.708 117.569)" fill="#056e93"></rect><path id="Path_4583" data-name="Path 4583" d="M628.521,1487.605h1.172a6.993,6.993,0,0,0,6.971-6.971v-11.782a6.993,6.993,0,0,0-6.971-6.971h-1.172a6.993,6.993,0,0,0-6.971,6.971v11.782A6.993,6.993,0,0,0,628.521,1487.605Z" transform="translate(-743.754 -1325.314)" fill="#056e93"></path><path id="Path_4584" data-name="Path 4584" d="M487.671,1487.605h1.172a6.993,6.993,0,0,0,6.971-6.971v-11.782a6.993,6.993,0,0,0-6.971-6.971h-1.172a6.993,6.993,0,0,0-6.971,6.971v11.782A6.993,6.993,0,0,0,487.671,1487.605Z" transform="translate(-649.796 -1325.314)" fill="#056e93"></path><rect id="Rectangle_2547" data-name="Rectangle 2547" width="43.866" height="9.565" transform="translate(-158.21 145.139)" fill="#056e93"></rect><path id="Path_4585" data-name="Path 4585" d="M654.161,1570.475h1.172a6.993,6.993,0,0,0,6.971-6.971v-11.782a6.993,6.993,0,0,0-6.971-6.971h-1.172a6.993,6.993,0,0,0-6.971,6.971V1563.5A6.993,6.993,0,0,0,654.161,1570.475Z" transform="translate(-760.858 -1380.594)" fill="#056e93"></path><path id="Path_4586" data-name="Path 4586" d="M513.3,1570.475h1.172a6.993,6.993,0,0,0,6.971-6.971v-11.782a6.993,6.993,0,0,0-6.971-6.971H513.3a6.993,6.993,0,0,0-6.971,6.971V1563.5A6.993,6.993,0,0,0,513.3,1570.475Z" transform="translate(-666.894 -1380.594)" fill="#056e93"></path><rect id="Rectangle_2548" data-name="Rectangle 2548" width="43.866" height="9.565" transform="translate(-149.677 172.732)" fill="#056e93"></rect><path id="Path_4587" data-name="Path 4587" d="M514.565,1301.44l35.553,117.476H526.8L494.37,1301.44Z" transform="translate(-658.915 -1218.288)" fill="#1b86ce"></path><path id="Path_4588" data-name="Path 4588" d="M516.575,1301.44l35.557,117.476h-9.954L509.75,1301.44Z" transform="translate(-669.175 -1218.288)" fill="#0477aa"></path><path id="Path_4589" data-name="Path 4589" d="M418,1301.44,382.45,1418.916h23.325L438.2,1301.44Z" transform="translate(-584.257 -1218.288)" fill="#1b86ce"></path><path id="Path_4590" data-name="Path 4590" d="M420.466,1345.567h0a5.564,5.564,0,0,1-5.547-5.547v-4.834a5.564,5.564,0,0,1,5.547-5.547h0a5.564,5.564,0,0,1,5.547,5.547v4.834A5.564,5.564,0,0,1,420.466,1345.567Z" transform="translate(-605.916 -1237.1)" fill="#0079a8"></path><path id="Path_4591" data-name="Path 4591" d="M523.837,1345.567h0a5.564,5.564,0,0,1-5.547-5.547v-4.834a5.564,5.564,0,0,1,5.547-5.547h0a5.564,5.564,0,0,1,5.547,5.547v4.834A5.562,5.562,0,0,1,523.837,1345.567Z" transform="translate(-674.872 -1237.1)" fill="#0079a8"></path><rect id="Rectangle_2549" data-name="Rectangle 2549" width="37.83" height="8.25" transform="translate(-188.723 96.805)" fill="#0079a8"></rect><path id="Path_4592" data-name="Path 4592" d="M399.721,1412.486h-1.009a6.032,6.032,0,0,1-6.013-6.013v-10.161a6.032,6.032,0,0,1,6.013-6.013h1.009a6.032,6.032,0,0,1,6.013,6.013v10.161A6.029,6.029,0,0,1,399.721,1412.486Z" transform="translate(-591.094 -1277.564)" fill="#0079a8"></path><path id="Path_4593" data-name="Path 4593" d="M521.2,1412.486h-1.009a6.032,6.032,0,0,1-6.013-6.013v-10.161a6.032,6.032,0,0,1,6.013-6.013H521.2a6.032,6.032,0,0,1,6.013,6.013v10.161A6.03,6.03,0,0,1,521.2,1412.486Z" transform="translate(-672.13 -1277.564)" fill="#0079a8"></path><rect id="Rectangle_2550" data-name="Rectangle 2550" width="37.83" height="8.25" transform="translate(-192.135 120.13)" fill="#0079a8"></rect><path id="Path_4594" data-name="Path 4594" d="M375.2,1495.3h-1.172a6.993,6.993,0,0,1-6.971-6.971v-11.782a6.993,6.993,0,0,1,6.971-6.971H375.2a6.993,6.993,0,0,1,6.971,6.971v11.782A6.993,6.993,0,0,1,375.2,1495.3Z" transform="translate(-573.99 -1330.444)" fill="#0079a8"></path><path id="Path_4595" data-name="Path 4595" d="M516.063,1495.3h-1.172a6.993,6.993,0,0,1-6.971-6.971v-11.782a6.993,6.993,0,0,1,6.971-6.971h1.172a6.993,6.993,0,0,1,6.971,6.971v11.782A6.993,6.993,0,0,1,516.063,1495.3Z" transform="translate(-667.954 -1330.444)" fill="#0079a8"></path><rect id="Rectangle_2551" data-name="Rectangle 2551" width="43.866" height="9.565" transform="translate(-199.669 147.699)" fill="#0079a8"></rect><path id="Path_4596" data-name="Path 4596" d="M349.583,1578.165h-1.172a6.993,6.993,0,0,1-6.971-6.971v-11.782a6.993,6.993,0,0,1,6.971-6.972h1.172a6.993,6.993,0,0,1,6.971,6.972v11.782A6.993,6.993,0,0,1,349.583,1578.165Z" transform="translate(-556.9 -1385.724)" fill="#0079a8"></path><path id="Path_4597" data-name="Path 4597" d="M490.433,1578.165h-1.172a6.993,6.993,0,0,1-6.971-6.971v-11.782a6.993,6.993,0,0,1,6.971-6.972h1.172a6.993,6.993,0,0,1,6.971,6.972v11.782A6.993,6.993,0,0,1,490.433,1578.165Z" transform="translate(-650.857 -1385.724)" fill="#0079a8"></path><rect id="Rectangle_2552" data-name="Rectangle 2552" width="43.866" height="9.565" transform="translate(-208.202 175.289)" fill="#0079a8"></rect></g><path id="Path_4599" data-name="Path 4599" d="M900.049,1227.59h11.323a3.341,3.341,0,0,1,3.339,3.339v9.1H900.049a3.341,3.341,0,0,1-3.339-3.339v-5.76A3.341,3.341,0,0,1,900.049,1227.59Z" transform="translate(-3392.959 1238.544)" fill="#f36e07"></path><path id="Path_4600" data-name="Path 4600" d="M900.049,1277.99h11.323a3.341,3.341,0,0,1,3.339,3.339v9.1H900.049a3.341,3.341,0,0,1-3.339-3.339v-5.76a3.341,3.341,0,0,1,3.339-3.339Z" transform="translate(-3392.959 1204.923)" fill="#f36e07"></path><path id="Path_4601" data-name="Path 4601" d="M900.049,1328.4h11.323a3.341,3.341,0,0,1,3.339,3.339v9.1H900.049a3.341,3.341,0,0,1-3.339-3.339v-5.76A3.341,3.341,0,0,1,900.049,1328.4Z" transform="translate(-3392.959 1171.296)" fill="#f36e07"></path><g id="Group_4146" data-name="Group 4146" transform="translate(-2465.653 2336.416)" clip-path="url(#clip-path-2)"><path id="Path_4602" data-name="Path 4602" d="M1042.974,1338.1s-6,80.082-4.2,89.078,2.7,17.995,16.193,18.894,21.77-63.083,21.77-63.083l7.624-32.99s-22.8-13.7-41.393-11.9Z" transform="translate(-1021.85 -1171.483)" fill="#f36e07"></path><path id="Path_4603" data-name="Path 4603" d="M1517.189,1434.107l-3.109,28.955s-.949.449,1.348,11.742c1.272,6.259-9.681,7.74-16.44,7.268-5.75-.406-13.923-.856-14.363-5.9-1.648-18.99-3-27.736-4.151-37.96-1.425-12.681-2.384-20.718-2.384-20.718l41.389-4.674Z" transform="translate(-1315.13 -1221.434)" fill="#f36e07"></path><path id="Path_4604" data-name="Path 4604" d="M1535.389,1701.46s6.3,25.193-5.4,25.193-27.25-10.151-21.6-20.954c3.339-6.379-2.274-67.82-7.437-117.127-1.465-13.966-2.064-24.493-4.065-37.454-1.2-7.74,10.717-10.684,18.75-10.114,6.991.493,9.915,3.1,11.912,8.932,1.814,5.31,2.437,21.517,2.437,21.517s.649,5.234,1.561,13.7c2.956,27.427,8.653,88.808,3.839,116.311Z" transform="translate(-1327.617 -1306.896)" fill="#f36e07"></path><path id="Path_4605" data-name="Path 4605" d="M1225.3,1031.11s1.415,28.795-2.783,32.394-20.695,5.7-32.091,9.6c0,0,22.536,19.8,63.006,19.8s38.969-18.3,38.969-18.3-31.495-2.7-33.293-9.6,2.1-23.994,2.1-23.994-27.723-29.088-35.906-9.895Z" transform="translate(-1123.239 -962.437)" fill="#f36e07"></path><path id="Path_4606" data-name="Path 4606" d="M1327.546,1057.34c-.6,3.476-1.1,4.042-1.2,7.777-7.251,3.882-26.664,9.961-34.821,4.048,1.774-7.88,1.232-23.9,1.082-27.593,1.978-1.974,4.358-2.947,6.968-.916,5.61,4.348,23.864,18.171,27.813,16.73.05-.013.1-.04.153-.05Z" transform="translate(-1190.68 -972.424)" fill="#8f001c"></path><path id="Path_4607" data-name="Path 4607" d="M1040.88,1239.336s1.205-40.69,11.1-53.887,38.686-15.1,38.686-15.1,22.686,19.293,59.214,19.293,41.969-17.868,41.969-17.868,27.8,5.616,32.357,14.133c9.082,17,5.926,70.218,5.926,70.218l-29.694,6.3s5.706,86.94,1.8,96.539-145.765,0-145.765,0,23.994-97.63,25.8-107.732c0,0-11.7-3.2-41.389-11.9Z" transform="translate(-1023.478 -1059.689)" fill="#f8ebda"></path><path id="Path_4608" data-name="Path 4608" d="M993.333,1843.739l31.422-106.839H1170.52l12.695,106.44s-45.088,21.151-83.182,8.373l-7.4-37.191-11.6,35.993c-10.8,7.894-76.906,6.019-87.706-6.775Z" transform="translate(-991.759 -1437.62)" fill="#03277f"></path><rect id="Rectangle_2553" data-name="Rectangle 2553" width="116.314" height="2.35" transform="translate(9.158 410.809) rotate(-74.02)" fill="#f8ebda"></rect><rect id="Rectangle_2554" data-name="Rectangle 2554" width="111.37" height="2.35" transform="matrix(0.282, -0.959, 0.959, 0.282, 0.479, 405.826)" fill="#f8ebda"></rect><rect id="Rectangle_2555" data-name="Rectangle 2555" width="2.347" height="107.166" transform="matrix(0.993, -0.118, 0.118, 0.993, 177.665, 299.429)" fill="#f8ebda"></rect><rect id="Rectangle_2556" data-name="Rectangle 2556" width="2.35" height="110.019" transform="translate(170.095 299.57) rotate(-6.45)" fill="#f8ebda"></rect><path id="Path_4609" data-name="Path 4609" d="M1549.844,1428l-29.427,10.664-.266-4.368Z" transform="translate(-1343.186 -1231.56)" fill="#8f001c"></path><path id="Path_4610" data-name="Path 4610" d="M1359.27,1186.964l3.06-53.515,31.821.936-6.675,53.525Z" transform="translate(-1235.868 -1035.074)" fill="#3f3f3f"></path><path id="Path_4611" data-name="Path 4611" d="M1202.863,1177.961c1.631,9.245-11.283,15.065-18.567,15.368s-66.252,125.26-79.3,128.836-16.846-4.628-21.5-12.534a64.087,64.087,0,0,1-3.6-9.438c-2.66-30.027,24.806-44.829,24.806-44.829l.156.063s71.692-81,78.664-86.687,17.708-.03,19.343,9.219Z" transform="translate(-1049.384 -1057.096)" fill="#f36e07"></path><path id="Path_4612" data-name="Path 4612" d="M1295.836,907.08s-4.132-38.17,26.052-33.975,26.6,31.215,24.2,42.421-11.063,33.639-13.33,35.61c-3.955,3.439-34.188,3.542-39.718-12.994C1294.222,924.222,1299.632,919.265,1295.836,907.08Z" transform="translate(-1191.687 -861.189)" fill="#f56d07"></path><path id="Path_4613" data-name="Path 4613" d="M1286.968,964.231s-4.548-6.029-8.966-4.108-6.472,12.708,6.162,19.107C1284.164,979.229,1290.453,971.932,1286.968,964.231Z" transform="translate(-1179.383 -919.2)" fill="#f36e07"></path><path id="Path_4614" data-name="Path 4614" d="M1423.94,1009.342s7.234-2.174,9.658,1.984-2.291,14.073-16.263,11.769c0,0-.762-9.6,6.6-13.757Z" transform="translate(-1274.586 -951.905)" fill="#f36e07"></path><path id="Path_4615" data-name="Path 4615" d="M1352.766,974.045a2.32,2.32,0,0,1-.936,2.863s-6.565-4.771-13.161-5.587a6.015,6.015,0,0,1,4.8-1.578c3.153.243,9.3,4.3,9.3,4.3Z" transform="translate(-1222.126 -925.854)" fill="#3f3f3f"></path><path id="Path_4616" data-name="Path 4616" d="M1402.4,990.57c-1.142.822-1.774,1.724-.936,2.863,0,0,8.113.03,13.916,3.273a6.013,6.013,0,0,0-2.94-4.112C1409.755,990.923,1402.4,990.57,1402.4,990.57Z" transform="translate(-1263.761 -939.762)" fill="#3f3f3f"></path><path id="Path_4617" data-name="Path 4617" d="M1381.534,1032.088a7.005,7.005,0,0,1-2.4-1.478l.546-.563s1.658,1.585,3.2,1.445a2.139,2.139,0,0,0,1.585-1c1.891-2.65-1.219-10.654-1.252-10.734l.729-.286c.133.346,3.3,8.483,1.159,11.473a2.912,2.912,0,0,1-2.154,1.325A3.429,3.429,0,0,1,1381.534,1032.088Z" transform="translate(-1249.116 -959.041)" fill="#3f3f3f"></path><path id="Path_4618" data-name="Path 4618" d="M1365.955,1064.836a37.092,37.092,0,0,1-6.565-2.93l.4-.676a33.564,33.564,0,0,0,9.718,3.689l-.127.772a23.114,23.114,0,0,1-3.426-.856Z" transform="translate(-1235.948 -986.898)" fill="#f9c785"></path><path id="Path_4619" data-name="Path 4619" d="M1357.369,881.514a.293.293,0,0,0,.183-.556.293.293,0,0,0-.183.556Z" transform="translate(-1234.47 -866.632)" fill="#3f3f3f"></path><path id="Path_4620" data-name="Path 4620" d="M1405.1,909.454a.293.293,0,0,0,.183-.556.293.293,0,0,0-.183.556Z" transform="translate(-1266.314 -885.27)" fill="#3f3f3f"></path><path id="Path_4621" data-name="Path 4621" d="M1433.314,912.054a.293.293,0,0,0,.183-.556.293.293,0,0,0-.183.556Z" transform="translate(-1285.132 -887.005)" fill="#3f3f3f"></path><path id="Path_4622" data-name="Path 4622" d="M1349.544,909.772a.293.293,0,0,0,.183-.556.293.293,0,0,0-.183.556Z" transform="translate(-1229.251 -885.482)" fill="#3f3f3f"></path><path id="Path_4623" data-name="Path 4623" d="M1392,885.744a.293.293,0,0,0,.183-.556.293.293,0,0,0-.183.556Z" transform="translate(-1257.573 -869.454)" fill="#3f3f3f"></path><path id="Path_4624" data-name="Path 4624" d="M1381.554,903.174a.293.293,0,0,0,.183-.556.293.293,0,0,0-.183.556Z" transform="translate(-1250.604 -881.081)" fill="#3f3f3f"></path><path id="Path_4625" data-name="Path 4625" d="M1416.495,917.576a.293.293,0,0,0,0-.586.293.293,0,0,0,0,.586Z" transform="translate(-1273.852 -890.679)" fill="#3f3f3f"></path><path id="Path_4626" data-name="Path 4626" d="M1337.918,894.592a.293.293,0,0,0,.183-.556.293.293,0,0,0-.183.556Z" transform="translate(-1221.494 -875.356)" fill="#3f3f3f"></path><path id="Path_4627" data-name="Path 4627" d="M1423.529,895.111a.293.293,0,0,0,.183-.556.293.293,0,0,0-.183.556Z" transform="translate(-1278.603 -875.701)" fill="#3f3f3f"></path><path id="Path_4628" data-name="Path 4628" d="M1329.521,920.274a.293.293,0,0,0,.183-.556.293.293,0,0,0-.183.556Z" transform="translate(-1215.894 -892.488)" fill="#3f3f3f"></path><path id="Path_4629" data-name="Path 4629" d="M1312.217,978.406l-.343,1.042-4.584-2.867.126-1.192Z" transform="translate(-1201.193 -929.636)" fill="#3f3f3f"></path><path id="Path_4630" data-name="Path 4630" d="M1438.643,1018.209l-.343,1.049,2.9-.42.486-1.079Z" transform="translate(-1288.587 -957.9)" fill="#3f3f3f"></path><path id="Path_4631" data-name="Path 4631" d="M1289.826,984.652a5.984,5.984,0,0,0-.736-.386c-.839-.393-1.981-.932-1.741-2.354a2.464,2.464,0,0,1,1.322-1.591c.33-.213.639-.416.682-.623a.855.855,0,0,0-.193-.543c-.859-1.282-2.424-.356-2.494-.316l-.406-.669a2.56,2.56,0,0,1,3.549.553,1.493,1.493,0,0,1,.31,1.135c-.11.526-.573.829-1.022,1.122s-.9.583-.979,1.069c-.137.8.406,1.092,1.3,1.515a5.749,5.749,0,0,1,.839.446l-.436.643Z" transform="translate(-1187.165 -931.174)" fill="#f36e07"></path><path id="Path_4632" data-name="Path 4632" d="M1439.12,1026.884l.03-.786a6.8,6.8,0,0,1,.942.136c.972.193,1.581.27,1.944-.453a1.8,1.8,0,0,0-.156-1.438,1.958,1.958,0,0,1-.163-1.512,1.492,1.492,0,0,1,.919-.732,2.561,2.561,0,0,1,3.193,1.655l-.723.3c-.03-.073-.749-1.741-2.2-1.218a.867.867,0,0,0-.476.323c-.087.193.043.536.183.906a2.469,2.469,0,0,1,.127,2.064c-.646,1.292-1.888,1.049-2.793.869a7.136,7.136,0,0,0-.822-.116Z" transform="translate(-1289.134 -960.691)" fill="#f36e07"></path><path id="Path_4633" data-name="Path 4633" d="M1297.671,982.133l4.667,2.52s-1.6,8.36,1.7,14.176,10.138,4.794,13.893,5.846,9.6,4.438,11.12,5.294,5.35,2.167,6.649.116,6.1-13.687,6.1-13.687l2.331-.233s-6.166,24.646-11.146,27.909-14.582,5.1-23.811.939-15.574-7.111-15.777-15.268,4.271-27.616,4.271-27.616Z" transform="translate(-1191.921 -934.132)" fill="#3f3f3f"></path><path id="Path_4634" data-name="Path 4634" d="M1343.679,998.23c-.6-2.254,4.278-.03,6.322,1.192s4,3.439,3.126,3.942S1344.6,1001.7,1343.679,998.23Z" transform="translate(-1225.433 -944.226)" fill="#f8ebda"></path><path id="Path_4635" data-name="Path 4635" d="M1407.966,1022.533c1.814-1.465-3.432-2.554-5.8-2.773s-5.257.41-4.851,1.332S1405.177,1024.787,1407.966,1022.533Z" transform="translate(-1261.219 -959.204)" fill="#f8ebda"></path><circle id="Ellipse_53" data-name="Ellipse 53" cx="2.211" cy="2.211" r="2.211" transform="translate(121.306 58.671) rotate(-71.88)" fill="#3f3f3f"></circle><circle id="Ellipse_54" data-name="Ellipse 54" cx="2.211" cy="2.211" r="2.211" transform="translate(140.296 64.294) rotate(-71.88)" fill="#3f3f3f"></circle><path id="Path_4636" data-name="Path 4636" d="M1352.368,1058.617a5.573,5.573,0,0,0,1.738,2.41,10.175,10.175,0,0,0,6.938,2.044c.752-.017.816-1.192.053-1.172a9.052,9.052,0,0,1-6.286-1.8,5.574,5.574,0,0,1-.656-.686,3.4,3.4,0,0,1-.373-.523,4.156,4.156,0,0,1-.243-.469c-.043-.093-.1-.273-.027-.053-.227-.716-1.378-.473-1.145.246h0Z" transform="translate(-1231.243 -984.701)" fill="#f9c785"></path></g><path id="Path_4638" data-name="Path 4638" d="M416.873,852.465H616.549a47.614,47.614,0,0,0,47.615-47.615V746.2a47.614,47.614,0,0,0-47.615-47.615H464.485A47.614,47.614,0,0,0,416.87,746.2v106.27h0Z" transform="translate(-3072.87 1591.432)" fill="#0057d5"></path><path id="Path_4639" data-name="Path 4639" d="M1335.752,627.135H1185.329a35.871,35.871,0,0,1-35.87-35.869V547.079a35.871,35.871,0,0,1,35.87-35.869h114.553a35.871,35.871,0,0,1,35.869,35.869v80.055h0Z" transform="translate(-3561.562 1716.422)" fill="#3c9eef"></path><path id="Path_4640" data-name="Path 4640" d="M1412.51,558.164v76.7a5.194,5.194,0,0,1-5.194,5.194h-35.823a5.194,5.194,0,0,1-5.194-5.194v-76.7a5.194,5.194,0,0,1,5.194-5.194h7.954v1.2a2.561,2.561,0,0,0,2.56,2.56H1396.8a2.561,2.561,0,0,0,2.56-2.56v-1.2h7.954a5.194,5.194,0,0,1,5.194,5.194Z" transform="translate(-3706.21 1688.565)" fill="#fff"></path><path id="Path_4641" data-name="Path 4641" d="M1404.228,637.042h-39.289a5.877,5.877,0,0,1-5.869-5.87V546.739a5.877,5.877,0,0,1,5.869-5.869h39.289a5.877,5.877,0,0,1,5.87,5.869v84.433A5.877,5.877,0,0,1,1404.228,637.042ZM1364.939,541.2a5.55,5.55,0,0,0-5.543,5.543v84.433a5.55,5.55,0,0,0,5.543,5.543h39.289a5.55,5.55,0,0,0,5.543-5.543V546.739a5.55,5.55,0,0,0-5.543-5.543Z" transform="translate(-3701.387 1696.637)" fill="#fff"></path><g id="Group_4147" data-name="Group 4147" transform="translate(-2331.517 2266.345)" opacity="0.31"><path id="Path_4642" data-name="Path 4642" d="M1406.568,657.61a15.06,15.06,0,1,1,15.058-15.062A15.076,15.076,0,0,1,1406.568,657.61Zm0-27.779a12.718,12.718,0,1,0,12.718,12.718A12.732,12.732,0,0,0,1406.568,629.831Z" transform="translate(-1391.51 -627.49)" fill="#f36e07"></path></g><path id="Path_4643" data-name="Path 4643" d="M1406.568,657.61a15.076,15.076,0,0,1-15.058-15.062h2.34a12.718,12.718,0,1,0,12.718-12.718v-2.34a15.06,15.06,0,0,1,0,30.12Z" transform="translate(-3723.027 1638.855)" fill="#f36e07"></path><rect id="Rectangle_2557" data-name="Rectangle 2557" width="2.34" height="11.965" transform="translate(-2317.627 2273.04)" fill="#f36e07"></rect><path id="Path_4644" data-name="Path 4644" d="M1425.447,678.5l-5.567-5.563,1.658-1.658,3.909,3.912,4.4-4.4,1.655,1.658Z" transform="translate(-3741.952 1609.97)" fill="#f36e07"></path><path id="Path_4645" data-name="Path 4645" d="M966.787,274.68h83.182a21.766,21.766,0,0,1,21.757,21.757v78H966.787a21.766,21.766,0,0,1-21.757-21.757V296.437A21.766,21.766,0,0,1,966.787,274.68Z" transform="translate(-3425.192 1874.205)" fill="#fbb040"></path><path id="Path_4646" data-name="Path 4646" d="M1159.575,445.741l-7.7-7.7-14.362-14.362-3.313-3.313a2.7,2.7,0,0,0-3.819,3.819l9.056,9.056,13,13,3.313,3.313a2.7,2.7,0,0,0,3.819-3.819Z" transform="translate(-3548.319 1777.536)" fill="#fff"></path><path id="Path_4647" data-name="Path 4647" d="M1062.5,450.862a15.661,15.661,0,0,1,0-31.322h15.661V435.2A15.678,15.678,0,0,1,1062.5,450.862Zm0-27.54a11.879,11.879,0,1,0,0,23.758h0A11.892,11.892,0,0,0,1074.38,435.2V423.322Z" transform="translate(-3493.107 1777.573)" fill="#fff"></path><path id="Path_4648" data-name="Path 4648" d="M1078.162,368.142H1062.5a15.661,15.661,0,1,1,15.661-15.661ZM1062.5,340.6a11.892,11.892,0,0,0-11.879,11.879h0A11.892,11.892,0,0,0,1062.5,364.36h11.879V352.481A11.892,11.892,0,0,0,1062.5,340.6Z" transform="translate(-3493.107 1832.753)" fill="#fff"></path><path id="Path_4649" data-name="Path 4649" d="M1145.221,368.142H1129.56V352.481a15.661,15.661,0,0,1,31.322,0h0A15.678,15.678,0,0,1,1145.221,368.142Zm-11.879-3.779h11.879a11.879,11.879,0,1,0-11.879-11.879Z" transform="translate(-3548.287 1832.753)" fill="#fff"></path><g id="Group_4148" data-name="Group 4148" transform="translate(-2656 2290.012)" clip-path="url(#clip-path-3)"><path id="Path_4650" data-name="Path 4650" d="M668.437,688.02V805.883a7.98,7.98,0,0,1-7.98,7.98H605.41a7.98,7.98,0,0,1-7.98-7.98V688.02a7.979,7.979,0,0,1,7.98-7.98h12.222v1.841a3.934,3.934,0,0,0,3.935,3.935H644.3a3.934,3.934,0,0,0,3.935-3.935V680.04h12.222a7.98,7.98,0,0,1,7.98,7.98Z" transform="translate(-537.317 -686.212)" fill="#fff"></path><path id="Path_4651" data-name="Path 4651" d="M655.715,809.243h-60.37a9.027,9.027,0,0,1-9.016-9.016V670.486a9.027,9.027,0,0,1,9.016-9.016h60.37a9.027,9.027,0,0,1,9.016,9.016V800.227A9.027,9.027,0,0,1,655.715,809.243Zm-60.37-147.28a8.529,8.529,0,0,0-8.52,8.52V800.224a8.529,8.529,0,0,0,8.52,8.52h60.37a8.529,8.529,0,0,0,8.52-8.52V670.482a8.529,8.529,0,0,0-8.52-8.52Z" transform="translate(-529.912 -673.825)" fill="#fff"></path><path id="Path_4652" data-name="Path 4652" d="M679.3,778.361H629.94v-4.9h.093v4.807h49.173V773.46h.093Z" transform="translate(-559.003 -748.53)" fill="#841733"></path><rect id="Rectangle_2558" data-name="Rectangle 2558" width="36.202" height="8.583" transform="translate(77.608 44.712)" fill="#ff8c21"></rect><path id="Path_4653" data-name="Path 4653" d="M699.48,837.64V839.9l3.266.539-3.266.43v2.37l5.949-2.8Z" transform="translate(-605.392 -791.343)" fill="#fff"></path><path id="Path_4654" data-name="Path 4654" d="M716.307,835.381c8.037,2.014,14.835,20,16.75,21.887s5.517,16.43,6.149,16.8,5.943.826,7.85,3.369,6.359-.033,9.225,3.912,2.777.972,7.424,4.767,7.544,32,10.178,41.3S800.4,984.519,801.943,990.9s-37.817,15.511-46.037-1.934-8.47-48.354-11.09-54.184-22.579-23.152-24.047-27.47a237.275,237.275,0,0,0-11.659-25.972c-3.259-5.889,5.713-7.191,11.326-1.212a44.739,44.739,0,0,1,8.5,13.96s-2.876-18.291-3.063-20.894c-.719-9.978-7.341-20.6-8.3-22.473-1.275-2.49-5.623-16.44-1.268-15.348Z" transform="translate(-611.352 -789.794)" fill="#f36e07"></path><path id="Path_4655" data-name="Path 4655" d="M836.252,1188.46c-6.089-1.249-11.323-4.088-13.776-9.3-8.223-17.445-8.47-48.354-11.09-54.184a22.844,22.844,0,0,0-3.326-4.634c3.785,1.918,7.711,4.375,9.638,7.015,3.559,4.881,10.031,43.434,18.554,61.1Z" transform="translate(-677.823 -979.925)" fill="#dd5d05"></path></g><path id="Path_4657" data-name="Path 4657" d="M969.93,960.026V915.75h62.916a4.049,4.049,0,0,1,4.048,4.048v23.714a4.049,4.049,0,0,1-4.048,4.048h-51.57L969.93,960.019Z" transform="translate(-3441.802 1446.564)" fill="#a84807"></path><path id="Path_4658" data-name="Path 4658" d="M961.68,952.3V912.288a4.268,4.268,0,0,1,4.268-4.268h58.435a4.268,4.268,0,0,1,4.268,4.268V935.57a4.268,4.268,0,0,1-4.268,4.268H973.03L961.683,952.3Z" transform="translate(-3436.299 1451.72)" fill="#ff8c21"></path><path id="Path_4659" data-name="Path 4659" d="M1021.274,946.282l-.143-.067L997.11,935.252l.28-.616,23.874,10.9,22.8-11.086.293.609Z" transform="translate(-3459.933 1434.09)" fill="#fff"></path><path id="Path_4660" data-name="Path 4660" d="M1709.407,1333.444l-2.647-2.643,29.943-29.947-29.168-29.171,2.647-2.643L1742,1300.854Z" transform="translate(-3933.322 1210.893)" fill="#0a468e"></path><rect id="Rectangle_2559" data-name="Rectangle 2559" width="85.445" height="3.742" transform="translate(-2277.28 2510.266)" fill="#0a468e"></rect></g></svg>